<?xml version="1.0" encoding="UTF-8" standalone="no"?>
<svg
   xmlns:dc="http://purl.org/dc/elements/1.1/"
   xmlns:cc="http://creativecommons.org/ns#"
   xmlns:rdf="http://www.w3.org/1999/02/22-rdf-syntax-ns#"
   xmlns:svg="http://www.w3.org/2000/svg"
   xmlns="http://www.w3.org/2000/svg"
   xmlns:sodipodi="http://sodipodi.sourceforge.net/DTD/sodipodi-0.dtd"
   xmlns:inkscape="http://www.inkscape.org/namespaces/inkscape"
   inkscape:version="1.0 (4035a4fb49, 2020-05-01)"
   sodipodi:docname="Universidad_Autonoma_de_Queretaro.svg"
   version="1.1"
   id="svg2"
   xml:space="preserve"
   width="806.48572"
   height="1080"
   viewBox="0 0 806.48572 1080"><sodipodi:namedview
     inkscape:current-layer="svg2"
     inkscape:window-maximized="1"
     inkscape:window-y="-8"
     inkscape:window-x="1352"
     inkscape:cy="947.65295"
     inkscape:cx="351.42177"
     inkscape:zoom="0.27527664"
     fit-margin-bottom="0"
     fit-margin-right="0"
     fit-margin-left="0"
     fit-margin-top="0"
     showgrid="false"
     id="namedview29"
     inkscape:window-height="1017"
     inkscape:window-width="1920"
     inkscape:pageshadow="2"
     inkscape:pageopacity="0"
     guidetolerance="10"
     gridtolerance="10"
     objecttolerance="10"
     borderopacity="1"
     bordercolor="#666666"
     pagecolor="#ffffff" /><metadata
     id="metadata8"><rdf:RDF><cc:Work
         rdf:about=""><dc:format>image/svg+xml</dc:format><dc:type
           rdf:resource="http://purl.org/dc/dcmitype/StillImage" /><dc:title></dc:title></cc:Work></rdf:RDF></metadata><defs
     id="defs6" /><g
     id="g10"
     transform="matrix(4.4992884,0,0,-4.4992884,-233.82599,1121.128)"><g
       id="g12"
       transform="scale(0.1)"><path
         d="m 1415.93,93.6094 v 0 h -2.39 c -83.43,14.2886 -166.89,38.1606 -245.57,71.5386 -85.82,33.364 -166.89,76.282 -240.779,121.582 v 0 C 800.828,374.93 700.715,477.449 631.547,596.629 562.41,715.852 526.648,849.371 521.895,1006.72 v 0 1473.38 9.49 h 9.543 884.492 v -19.05 H 540.973 V 1006.72 c 4.754,-152.56 40.515,-286.111 107.293,-400.509 66.738,-116.84 164.5,-214.59 290.859,-302.813 v 0 c 71.495,-45.277 152.565,-88.207 235.995,-121.578 78.71,-30.98 159.74,-54.84 240.81,-69.129 v 0 z M 2309.97,2480.1 V 1006.72 C 2305.21,849.371 2267.05,715.852 2200.31,596.629 2131.17,477.449 2031.03,374.93 1902.29,286.73 v 0 c -71.51,-45.3 -152.59,-88.218 -238.4,-121.582 -81.08,-33.378 -162.15,-57.25 -245.58,-71.5386 h -2.38 v 19.0816 c 81.07,14.289 162.09,38.149 240.82,69.129 83.43,33.371 164.47,76.301 236.01,121.578 v 0 c 126.34,88.223 221.69,185.973 288.46,302.813 69.14,114.398 104.9,247.949 109.66,400.509 v 1463.82 h -874.95 v 19.05 h 884.48 9.56 v -9.49"
         style="fill:#231f20;fill-opacity:1;fill-rule:nonzero;stroke:none"
         id="path14" /><path
         d="M 2290.88,1006.72 V 2470.54 H 540.973 V 1006.72 c 4.754,-152.56 40.515,-286.111 107.293,-400.509 66.738,-116.84 164.5,-214.59 290.859,-302.813 v 0 c 71.495,-45.277 152.565,-88.207 235.995,-121.578 78.71,-30.98 159.74,-54.84 240.81,-69.129 81.07,14.289 162.09,38.149 240.82,69.129 83.43,33.371 164.47,76.301 236.01,121.578 v 0 c 126.34,88.223 221.69,185.973 288.46,302.813 69.14,114.398 104.9,247.949 109.66,400.509 z m 19.09,1473.38 V 1006.72 C 2305.21,849.371 2267.05,715.852 2200.31,596.629 2131.17,477.449 2031.03,374.93 1902.29,286.73 v 0 c -71.51,-45.3 -152.59,-88.218 -238.4,-121.582 -81.08,-33.378 -162.15,-57.25 -245.58,-71.5386 h -2.38 -2.39 c -83.43,14.2886 -166.89,38.1606 -245.57,71.5386 -85.82,33.364 -166.89,76.282 -240.779,121.582 v 0 C 800.828,374.93 700.715,477.449 631.547,596.629 562.41,715.852 526.648,849.371 521.895,1006.72 v 0 1473.38 9.49 h 9.543 1768.972 9.56 z"
         style="fill:none;stroke:#231f20;stroke-width:4.399;stroke-linecap:butt;stroke-linejoin:miter;stroke-miterlimit:4;stroke-dasharray:none;stroke-opacity:1"
         id="path16" /><path
         d="m 1415.93,315.34 h -2.39 c -35.74,7.14 -71.5,16.691 -107.27,28.609 -35.76,11.91 -71.52,26.211 -104.9,40.52 v 0 c -33.4,16.691 -64.38,31.023 -97.75,50.062 -31.01,19.078 -61.99,38.16 -90.6,59.59 v 0 c -31.012,23.871 -59.59,47.699 -88.215,76.309 -26.227,26.199 -52.45,54.851 -73.887,85.832 v 0 c -23.863,35.758 -45.309,71.527 -62.023,109.687 -14.29,35.762 -26.192,76.25 -35.731,116.781 v 0 c -4.781,21.489 -7.148,42.918 -9.535,64.36 -2.399,21.469 -4.789,42.941 -4.789,64.41 v 0 1254.01 9.53 h 677.09 v -16.67 H 753.164 V 1011.5 c 2.363,-21.469 2.363,-42.941 4.758,-62.031 2.387,-21.43 7.141,-42.867 9.527,-64.328 v 2.39 c 9.547,-40.551 21.446,-78.711 38.16,-116.84 14.297,-35.75 33.375,-71.531 57.204,-104.89 v 0 c 23.867,-31.02 47.699,-59.59 73.925,-85.86 26.223,-26.179 54.844,-50.05 85.812,-73.882 v 0 c 28.63,-21.43 59.6,-40.52 90.61,-57.207 30.98,-19.071 61.96,-33.36 95.37,-47.692 v 0 c 33.36,-16.691 66.73,-28.621 102.5,-40.519 33.37,-11.922 69.14,-21.469 104.9,-31.012 z m 641.32,491.109 v 0 c -7.15,-21.461 -14.3,-40.5 -23.86,-59.59 -9.51,-21.468 -19.05,-40.55 -30.98,-59.621 v 0 c -30.97,-47.668 -69.14,-92.968 -109.65,-131.097 -47.69,-45.332 -100.15,-83.45 -152.58,-114.469 v 0 c -50.07,-28.582 -100.14,-52.442 -152.57,-73.891 -50.1,-21.461 -102.54,-38.152 -154.99,-50.082 v 0 l -14.31,-2.359 h -2.38 v 14.289 0 l 14.32,4.742 v 0 c 50.05,11.949 102.51,28.668 150.18,47.711 52.43,21.438 102.5,45.297 150.19,73.887 v 0 c 54.84,31 104.91,66.781 150.21,109.679 40.56,40.563 78.66,83.434 107.3,131.133 v 0 c 11.88,19.071 21.43,35.758 30.97,54.848 9.52,19.062 16.67,40.5 23.85,59.59 v 0 c 7.15,21.472 11.91,45.301 16.71,66.742 7.14,23.871 9.49,45.328 14.29,69.129 v 0 c 0,4.781 0,7.18 0,9.582 2.38,19.066 2.38,38.117 2.38,54.828 v 1246.87 h -660.4 v 16.67 h 677.09 v -9.53 -1254.01 0 c 0,-19.07 -2.4,-38.16 -2.4,-54.828 -2.39,-4.801 -2.39,-9.582 -2.39,-11.942 v 0 c -2.39,-23.832 -7.14,-45.308 -11.9,-69.128 -4.78,-23.84 -11.95,-45.313 -19.08,-69.153"
         style="fill:#231f20;fill-opacity:1;fill-rule:nonzero;stroke:none"
         id="path18" /><path
         d="m 2042.95,811.219 v 0 c 7.15,21.472 11.91,45.301 16.71,66.742 7.14,23.871 9.49,45.328 14.29,69.129 v 0 c 0,4.781 0,7.18 0,9.582 2.38,19.066 2.38,38.117 2.38,54.828 V 2258.37 H 753.164 V 1011.5 c 2.363,-21.469 2.363,-42.941 4.758,-62.031 2.387,-21.43 7.141,-42.867 9.527,-64.328 v 2.39 c 9.547,-40.551 21.446,-78.711 38.16,-116.84 14.297,-35.75 33.375,-71.531 57.204,-104.89 v 0 c 23.867,-31.02 47.699,-59.59 73.925,-85.86 26.223,-26.179 54.844,-50.05 85.812,-73.882 v 0 c 28.63,-21.43 59.6,-40.52 90.61,-57.207 30.98,-19.071 61.96,-33.36 95.37,-47.692 v 0 c 33.36,-16.691 66.73,-28.621 102.5,-40.519 33.37,-11.922 69.14,-21.469 104.9,-31.012 l 14.32,4.742 v 0 c 50.05,11.949 102.51,28.668 150.18,47.711 52.43,21.438 102.5,45.297 150.19,73.887 v 0 c 54.84,31 104.91,66.781 150.21,109.679 40.56,40.563 78.66,83.434 107.3,131.133 v 0 c 11.88,19.071 21.43,35.758 30.97,54.848 9.52,19.062 16.67,40.5 23.85,59.59 z m 14.3,-4.77 v 0 c -7.15,-21.461 -14.3,-40.5 -23.86,-59.59 -9.51,-21.468 -19.05,-40.55 -30.98,-59.621 v 0 c -30.97,-47.668 -69.14,-92.968 -109.65,-131.097 -47.69,-45.332 -100.15,-83.45 -152.58,-114.469 v 0 c -50.07,-28.582 -100.14,-52.442 -152.57,-73.891 -50.1,-21.461 -102.54,-38.152 -154.99,-50.082 v 0 l -14.31,-2.359 h -4.77 c -35.74,7.14 -71.5,16.691 -107.27,28.609 -35.76,11.91 -71.52,26.211 -104.9,40.52 v 0 c -33.4,16.691 -64.38,31.023 -97.75,50.062 -31.01,19.078 -61.99,38.16 -90.6,59.59 v 0 c -31.012,23.871 -59.59,47.699 -88.215,76.309 -26.227,26.199 -52.45,54.851 -73.887,85.832 v 0 c -23.863,35.758 -45.309,71.527 -62.023,109.687 -14.29,35.762 -26.192,76.25 -35.731,116.781 v 0 c -4.781,21.489 -7.148,42.918 -9.535,64.36 -2.399,21.469 -4.789,42.941 -4.789,64.41 v 0 1254.01 9.53 h 1354.18 v -9.53 -1254.01 0 c 0,-19.07 -2.4,-38.16 -2.4,-54.828 -2.39,-4.801 -2.39,-9.582 -2.39,-11.942 v 0 c -2.39,-23.832 -7.14,-45.308 -11.9,-69.128 -4.78,-23.84 -11.95,-45.313 -19.08,-69.153 z"
         style="fill:none;stroke:#231f20;stroke-width:4.399;stroke-linecap:butt;stroke-linejoin:miter;stroke-miterlimit:4;stroke-dasharray:none;stroke-opacity:1"
         id="path20" /><path
         d="m 1396.85,1047.28 h 9.54 l 11.92,-2.41 11.94,7.12 4.76,2.39 -7.14,2.39 -9.56,2.4 -7.14,2.39 -4.78,-2.39 2.39,-4.79 -2.39,-2.39 h -4.76 l -4.78,-2.36 v -4.76 2.41 0"
         style="fill:#154281;fill-opacity:1;fill-rule:evenodd;stroke:none"
         id="path22" /><path
         d="m 1396.85,1047.28 h 9.54 l 11.92,-2.41 11.94,7.12 4.76,2.39 -7.14,2.39 -9.56,2.4 -7.14,2.39 -4.78,-2.39 2.39,-4.79 -2.39,-2.39 h -4.76 l -4.78,-2.36 v -4.76 z"
         style="fill:none;stroke:#231f20;stroke-width:4.399;stroke-linecap:butt;stroke-linejoin:miter;stroke-miterlimit:4;stroke-dasharray:none;stroke-opacity:1"
         id="path24" /><path
         d="m 1375.42,1071.07 9.49,9.56 h 19.08 l 16.7,-4.77 14.32,-7.15 11.93,-7.15 9.52,-7.18 -9.52,-9.51 -11.93,-2.39 -7.14,2.39 2.38,4.76 v 7.14 l -16.71,9.54 -11.91,2.4 -2.39,2.36 -16.68,-2.36 -7.14,2.36 v 0 0"
         style="fill:#154281;fill-opacity:1;fill-rule:evenodd;stroke:none"
         id="path26" /><path
         d="m 1375.42,1071.07 9.49,9.56 h 19.08 l 16.7,-4.77 14.32,-7.15 11.93,-7.15 9.52,-7.18 -9.52,-9.51 -11.93,-2.39 -7.14,2.39 2.38,4.76 v 7.14 l -16.71,9.54 -11.91,2.4 -2.39,2.36 -16.68,-2.36 z"
         style="fill:none;stroke:#231f20;stroke-width:4.399;stroke-linecap:butt;stroke-linejoin:miter;stroke-miterlimit:4;stroke-dasharray:none;stroke-opacity:1"
         id="path28" /><path
         d="m 1649.57,658.648 v 28.59 c 2.38,0 4.77,2.403 4.77,4.782 4.75,0 0,2.39 4.75,2.39 0,-2.39 -4.75,0 0,4.75 0,-7.14 -4.75,-4.75 4.8,0 0,4.77 -2.42,26.231 0,31.02 h 2.35 v 4.761 l 2.4,2.34 c -2.4,-2.34 0,0 4.78,0 l 2.4,2.41 c -2.4,-2.41 0,0 0,4.789 l 2.36,2.379 c -2.36,-2.379 0,0 2.39,0 h 2.36 c -2.36,0 0,0 0,4.77 l 2.4,2.34 h 4.78 l 2.39,2.41 c -2.39,-2.41 0,0 0,4.769 l 2.35,2.403 c -2.35,-2.403 0,0 4.8,0 l 2.35,2.398 v 4.742 l 2.39,2.379 c -2.39,-2.379 0,0 4.79,0 l 2.36,2.379 c -2.36,-2.379 0,0 0,4.789 l 2.41,2.383 c -2.41,-2.383 0,0 4.74,0 0,2.367 0,4.758 2.39,4.758 l 2.39,2.359 2.41,2.391 c -2.41,-2.391 0,0 0,4.801 4.74,0 0,2.379 4.74,2.379 v 7.14 h 2.41 c -2.41,0 0,0 0,4.77 h 2.35 v 11.922 h 2.38 v 4.769 l 2.42,2.379 c -2.42,-2.379 0,0 4.77,0 0,4.801 11.9,2.402 11.9,7.141 0,0 4.79,0 4.79,4.769 -4.79,-4.769 0,-4.769 4.75,0 l 2.4,2.383 2.34,2.398 c 0,4.782 4.8,4.782 4.8,4.782 v 2.398 c 2.38,2.36 4.78,2.36 4.78,7.11 l 2.37,2.402 2.38,2.367 c -2.38,-2.367 0,0 4.76,0 -7.14,-2.367 -4.76,0 0,4.801 l 2.39,2.371 c 4.79,0 11.93,9.519 16.7,9.519 v 16.692 h -2.42 v 7.18 h -7.14 c -2.35,0 -9.53,2.359 -14.29,2.359 l -2.38,2.41 c 2.38,-2.41 0,0 0,2.348 2.38,-4.758 0,-2.348 -4.77,0 l -2.38,2.39 c 2.38,-2.39 0,0 0,4.789 l -2.39,2.391 c 2.39,-2.391 0,0 -4.75,0 l -2.4,2.359 c 2.4,-2.359 0,0 0,4.762 2.4,-7.121 0,-4.762 -4.75,0 l -2.39,2.391 v 2.39 h -2.4 v 2.391 0 2.398 h -2.39 v 2.352 h -2.36 l -2.4,2.398 v 7.141 h -2.39 v 4.801 h -2.36 -2.39 v 2.379 h -2.38 l -2.42,2.371 c 2.42,-2.371 0,0 0,4.738 h -4.73 v 2.399 c -4.77,2.402 -23.85,0 -31.03,0 l -2.35,2.402 v 2.379 h -2.39 l -2.41,2.398 c -9.52,4.754 -9.52,4.754 -9.52,9.512 h -4.76 v 2.398 c 0,-2.398 0,0 -2.39,0 v 2.383 h -4.76 c 4.76,0 0,0 0,4.758 -9.53,0 -42.94,-4.758 -50.05,0 v 2.391 c -4.8,2.359 -21.47,0 -26.26,0 v 11.94 l -2.35,2.38 h -2.41 v 2.37 h -2.39 l -2.35,2.39 v 7.15 h 2.35 v 7.15 h -2.35 v 11.92 c -4.8,0 -4.8,2.39 -4.8,4.8 h -2.38 v 14.28 h -2.41 v 4.75 l -2.36,2.4 h -2.37 v 2.36 l -2.38,2.39 h -14.33 l -2.38,-2.39 v -2.36 l -2.36,-2.4 c 2.36,2.4 0,0 -4.79,0 l -2.39,-2.35 c 2.39,2.35 0,0 0,-4.79 l -2.37,-2.4 h -2.38 l -2.4,-2.39 v -7.1 h -2.36 v -4.8 h -2.39 c 2.39,0 0,0 -4.79,0 v 0 c 0,0 0,0 0,4.8 0,-4.8 0,-4.8 -4.75,0 l -2.4,2.35 c 0,2.36 -2.38,4.75 -4.75,4.75 4.75,-2.39 2.37,0 0,4.79 -4.77,0 0,2.39 -4.77,2.39 v 9.51 l 2.38,2.39 h 2.39 l 2.37,2.4 c -2.37,-2.4 0,0 0,4.77 h 2.38 c -2.38,0 0,0 2.4,0 0,4.77 4.75,0 4.75,4.77 0,0 9.54,4.75 9.54,7.15 h 7.15 v 2.37 h 26.25 v -2.37 h 9.52 l 2.38,2.37 v 7.15 h -2.38 v 7.15 l -2.41,2.39 -35.73,-2.39 c 0,-4.75 -7.14,-4.75 -9.53,-4.75 v -2.4 c 0,2.4 0,0 -4.79,0 v -2.34 h -4.75 c 4.75,0 0,0 0,-4.81 h -4.78 v 7.15 l -2.37,2.4 c 2.37,-2.4 0,0 -4.77,0 l -2.4,2.37 v 2.38 l -2.37,2.39 c 2.37,-2.39 0,0 -4.79,0 l -2.36,2.4 v 2.4 l -2.38,2.35 h -4.79 v 2.4 c -2.4,2.37 -19.08,0 -19.08,4.75 h -14.3 v 2.39 h -11.89 v 2.4 h -4.78 v 2.39 h -16.69 v -2.39 h -9.54 v -2.4 h -7.15 v -2.39 c -4.79,0 -4.79,0 -4.79,-4.75 h -2.36 c -2.39,-2.4 2.36,-16.69 0,-19.09 h -2.39 l -2.39,-40.51 h 2.39 v -7.18 l 2.39,-2.39 h 2.36 v -2.36 0 -2.35 h 2.4 v -2.41 h 2.39 v -2.39 h 2.39 v 0 l 2.37,-2.38 h 4.77 v -2.41 h 4.77 l 2.39,-2.39 v -11.89 h 2.4 c 4.75,0 7.14,-2.39 9.49,-2.39 v 7.16 h -2.35 v 11.92 c -4.76,0 0,2.38 -4.76,2.38 v 7.15 h -2.38 c -2.4,2.36 2.38,14.33 0,16.68 h -2.4 v 7.15 c -4.78,0 0,2.4 -4.78,2.4 v 7.14 h -2.38 v 11.92 h 2.38 v 7.15 h 7.18 l 2.38,-2.34 v -14.33 h 2.37 c 2.39,-4.77 0,-21.44 2.39,-26.23 h 2.35 v -7.18 h 2.41 v -4.71 c 0,4.71 0,0 4.77,0 v -4.8 0 c 0,0 0,0 0,-2.38 h 2.4 v -4.8 c 2.37,0 4.75,-2.35 4.75,-4.74 l 2.39,-2.38 h 7.15 l 2.39,-2.39 v -2.38 h 2.36 7.15 v -2.39 h 7.17 c 0,-4.76 2.4,0 2.4,-4.76 h 4.74 v -2.39 h 7.15 v -2.37 c 7.15,-4.78 33.38,0 42.92,0 -35.77,-4.78 -9.54,0 0,-4.78 l 2.4,-2.39 h 7.14 v -2.39 c 2.38,-2.401 16.68,0 21.48,0 v -9.51 h 2.38 v -4.782 h 4.75 v -2.398 h 7.15 c -7.15,0 0,0 0,-4.758 h 7.15 l 2.39,-2.383 v -21.437 c -4.74,0 0,0 -4.74,0 0,0 4.74,0 0,-4.801 -4.8,0 0,-2.402 -4.8,-2.402 V 930.41 h -2.38 v -30.988 h 2.38 v -4.774 h 2.4 c 2.4,0 2.4,-2.367 2.4,-4.769 l 2.35,-2.348 2.39,-2.39 c -2.39,2.39 0,0 4.76,0 -7.15,2.39 -4.76,0 0,-4.789 l 2.39,-2.391 h 4.78 v -2.359 c 0,-2.391 4.76,-4.762 7.15,-4.762 -7.15,2.371 -2.39,0 0,-4.801 -7.15,7.172 -2.39,4.801 4.76,0 l 2.38,-2.367 2.4,-2.402 v -4.75 h 2.4 c 4.75,-9.54 0,-50.071 0,-61.989 0,-7.152 2.35,-26.23 0,-30.98 h -2.4 v -7.172 c -2.4,0 -4.78,-2.41 -7.18,-2.41 l -2.36,-2.34 v -4.77 c -4.78,0 0,-2.379 -4.78,-2.379 v -9.539 h -2.37 v -9.55 h 2.37 v -7.141 c 0,7.141 0,0 4.78,0 0,-4.738 -2.39,-21.469 0,-23.84 h 2.36 v -4.769 c 2.4,0 2.4,-4.801 7.18,-4.801 v -7.121 h -2.4 v -4.77 c 2.4,0 11.91,0 11.91,-2.398 l 2.38,-19.082 h 16.71 v 7.179"
         style="fill:#231f20;fill-opacity:1;fill-rule:evenodd;stroke:none"
         id="path30" /><path
         d="m 1649.57,658.648 v 28.59 c 2.38,0 4.77,2.403 4.77,4.782 4.75,0 0,2.39 4.75,2.39 0,-2.39 -4.75,0 0,4.75 0,-7.14 -4.75,-4.75 4.8,0 0,4.77 -2.42,26.231 0,31.02 h 2.35 v 4.761 l 2.4,2.34 c -2.4,-2.34 0,0 4.78,0 l 2.4,2.41 c -2.4,-2.41 0,0 0,4.789 l 2.36,2.379 c -2.36,-2.379 0,0 2.39,0 h 2.36 c -2.36,0 0,0 0,4.77 l 2.4,2.34 h 4.78 l 2.39,2.41 c -2.39,-2.41 0,0 0,4.769 l 2.35,2.403 c -2.35,-2.403 0,0 4.8,0 l 2.35,2.398 v 4.742 l 2.39,2.379 c -2.39,-2.379 0,0 4.79,0 l 2.36,2.379 c -2.36,-2.379 0,0 0,4.789 l 2.41,2.383 c -2.41,-2.383 0,0 4.74,0 0,2.367 0,4.758 2.39,4.758 l 2.39,2.359 2.41,2.391 c -2.41,-2.391 0,0 0,4.801 4.74,0 0,2.379 4.74,2.379 v 7.14 h 2.41 c -2.41,0 0,0 0,4.77 h 2.35 v 11.922 h 2.38 v 4.769 l 2.42,2.379 c -2.42,-2.379 0,0 4.77,0 0,4.801 11.9,2.402 11.9,7.141 0,0 4.79,0 4.79,4.769 -4.79,-4.769 0,-4.769 4.75,0 l 2.4,2.383 2.34,2.398 c 0,4.782 4.8,4.782 4.8,4.782 v 2.398 c 2.38,2.36 4.78,2.36 4.78,7.11 l 2.37,2.402 2.38,2.367 c -2.38,-2.367 0,0 4.76,0 -7.14,-2.367 -4.76,0 0,4.801 l 2.39,2.371 c 4.79,0 11.93,9.519 16.7,9.519 v 16.692 h -2.42 v 7.18 h -7.14 c -2.35,0 -9.53,2.359 -14.29,2.359 l -2.38,2.41 c 2.38,-2.41 0,0 0,2.348 2.38,-4.758 0,-2.348 -4.77,0 l -2.38,2.39 c 2.38,-2.39 0,0 0,4.789 l -2.39,2.391 c 2.39,-2.391 0,0 -4.75,0 l -2.4,2.359 c 2.4,-2.359 0,0 0,4.762 2.4,-7.121 0,-4.762 -4.75,0 l -2.39,2.391 v 2.39 h -2.4 v 2.391 0 2.398 h -2.39 v 2.352 h -2.36 l -2.4,2.398 v 7.141 h -2.39 v 4.801 h -2.36 -2.39 v 2.379 h -2.38 l -2.42,2.371 c 2.42,-2.371 0,0 0,4.738 h -4.73 v 2.399 c -4.77,2.402 -23.85,0 -31.03,0 l -2.35,2.402 v 2.379 h -2.39 l -2.41,2.398 c -9.52,4.754 -9.52,4.754 -9.52,9.512 h -4.76 v 2.398 c 0,-2.398 0,0 -2.39,0 v 2.383 h -4.76 c 4.76,0 0,0 0,4.758 -9.53,0 -42.94,-4.758 -50.05,0 v 2.391 c -4.8,2.359 -21.47,0 -26.26,0 v 11.94 l -2.35,2.38 h -2.41 v 2.37 h -2.39 l -2.35,2.39 v 7.15 h 2.35 v 7.15 h -2.35 v 11.92 c -4.8,0 -4.8,2.39 -4.8,4.8 h -2.38 v 14.28 h -2.41 v 4.75 l -2.36,2.4 h -2.37 v 2.36 l -2.38,2.39 h -14.33 l -2.38,-2.39 v -2.36 l -2.36,-2.4 c 2.36,2.4 0,0 -4.79,0 l -2.39,-2.35 c 2.39,2.35 0,0 0,-4.79 l -2.37,-2.4 h -2.38 l -2.4,-2.39 v -7.1 h -2.36 v -4.8 h -2.39 c 2.39,0 0,0 -4.79,0 v 0 c 0,0 0,0 0,4.8 0,-4.8 0,-4.8 -4.75,0 l -2.4,2.35 c 0,2.36 -2.38,4.75 -4.75,4.75 4.75,-2.39 2.37,0 0,4.79 -4.77,0 0,2.39 -4.77,2.39 v 9.51 l 2.38,2.39 h 2.39 l 2.37,2.4 c -2.37,-2.4 0,0 0,4.77 h 2.38 c -2.38,0 0,0 2.4,0 0,4.77 4.75,0 4.75,4.77 0,0 9.54,4.75 9.54,7.15 h 7.15 v 2.37 h 26.25 v -2.37 h 9.52 l 2.38,2.37 v 7.15 h -2.38 v 7.15 l -2.41,2.39 -35.73,-2.39 c 0,-4.75 -7.14,-4.75 -9.53,-4.75 v -2.4 c 0,2.4 0,0 -4.79,0 v -2.34 h -4.75 c 4.75,0 0,0 0,-4.81 h -4.78 v 7.15 l -2.37,2.4 c 2.37,-2.4 0,0 -4.77,0 l -2.4,2.37 v 2.38 l -2.37,2.39 c 2.37,-2.39 0,0 -4.79,0 l -2.36,2.4 v 2.4 l -2.38,2.35 h -4.79 v 2.4 c -2.4,2.37 -19.08,0 -19.08,4.75 h -14.3 v 2.39 h -11.89 v 2.4 h -4.78 v 2.39 h -16.69 v -2.39 h -9.54 v -2.4 h -7.15 v -2.39 c -4.79,0 -4.79,0 -4.79,-4.75 h -2.36 c -2.39,-2.4 2.36,-16.69 0,-19.09 h -2.39 l -2.39,-40.51 h 2.39 v -7.18 l 2.39,-2.39 h 2.36 v -2.36 0 -2.35 h 2.4 v -2.41 h 2.39 v -2.39 h 2.39 v 0 l 2.37,-2.38 h 4.77 v -2.41 h 4.77 l 2.39,-2.39 v -11.89 h 2.4 c 4.75,0 7.14,-2.39 9.49,-2.39 v 7.16 h -2.35 v 11.92 c -4.76,0 0,2.38 -4.76,2.38 v 7.15 h -2.38 c -2.4,2.36 2.38,14.33 0,16.68 h -2.4 v 7.15 c -4.78,0 0,2.4 -4.78,2.4 v 7.14 h -2.38 v 11.92 h 2.38 v 7.15 h 7.18 l 2.38,-2.34 v -14.33 h 2.37 c 2.39,-4.77 0,-21.44 2.39,-26.23 h 2.35 v -7.18 h 2.41 v -4.71 c 0,4.71 0,0 4.77,0 v -4.8 0 c 0,0 0,0 0,-2.38 h 2.4 v -4.8 c 2.37,0 4.75,-2.35 4.75,-4.74 l 2.39,-2.38 h 7.15 l 2.39,-2.39 v -2.38 h 2.36 7.15 v -2.39 h 7.17 c 0,-4.76 2.4,0 2.4,-4.76 h 4.74 v -2.39 h 7.15 v -2.37 c 7.15,-4.78 33.38,0 42.92,0 -35.77,-4.78 -9.54,0 0,-4.78 l 2.4,-2.39 h 7.14 v -2.39 c 2.38,-2.401 16.68,0 21.48,0 v -9.51 h 2.38 v -4.782 h 4.75 v -2.398 h 7.15 c -7.15,0 0,0 0,-4.758 h 7.15 l 2.39,-2.383 v -21.437 c -4.74,0 0,0 -4.74,0 0,0 4.74,0 0,-4.801 -4.8,0 0,-2.402 -4.8,-2.402 V 930.41 h -2.38 v -30.988 h 2.38 v -4.774 h 2.4 c 2.4,0 2.4,-2.367 2.4,-4.769 l 2.35,-2.348 2.39,-2.39 c -2.39,2.39 0,0 4.76,0 -7.15,2.39 -4.76,0 0,-4.789 l 2.39,-2.391 h 4.78 v -2.359 c 0,-2.391 4.76,-4.762 7.15,-4.762 -7.15,2.371 -2.39,0 0,-4.801 -7.15,7.172 -2.39,4.801 4.76,0 l 2.38,-2.367 2.4,-2.402 v -4.75 h 2.4 c 4.75,-9.54 0,-50.071 0,-61.989 0,-7.152 2.35,-26.23 0,-30.98 h -2.4 v -7.172 c -2.4,0 -4.78,-2.41 -7.18,-2.41 l -2.36,-2.34 v -4.77 c -4.78,0 0,-2.379 -4.78,-2.379 v -9.539 h -2.37 v -9.55 h 2.37 v -7.141 c 0,7.141 0,0 4.78,0 0,-4.738 -2.39,-21.469 0,-23.84 h 2.36 v -4.769 c 2.4,0 2.4,-4.801 7.18,-4.801 v -7.121 h -2.4 v -4.77 c 2.4,0 11.91,0 11.91,-2.398 l 2.38,-19.082 h 16.71 z"
         style="fill:none;stroke:#231f20;stroke-width:4.399;stroke-linecap:butt;stroke-linejoin:miter;stroke-miterlimit:4;stroke-dasharray:none;stroke-opacity:1"
         id="path32" /><path
         d="m 633.945,799.309 v -19.071 l -14.3,-14.289 14.3,4.742 v -14.312 l -26.234,-7.117 -4.746,16.687 z m 0,71.531 v -14.32 l -52.457,-16.688 -4.75,11.93 z m 0,133.49 v -73.92 l -7.152,59.621 -50.055,-4.781 4.75,-61.961 h -14.293 l -7.14,73.891 z m 0,267.03 v -14.3 c -16.687,0 -30.98,-4.78 -42.914,-16.72 -11.933,-11.92 -19.078,-26.21 -19.078,-42.9 0,-14.3 7.145,-28.58 19.078,-40.53 11.934,-11.92 26.227,-16.72 42.914,-16.72 v -14.28 c -9.547,0 -19.082,2.39 -28.593,4.79 -7.172,2.39 -14.321,7.15 -21.465,14.29 -9.547,7.18 -14.293,14.3 -19.082,23.87 -4.75,9.49 -7.145,19.04 -7.145,30.97 0,19.08 7.145,38.17 23.828,52.45 14.297,11.9 31.012,19.08 52.457,19.08 z m 0,197.86 v -16.69 c 0,0 0,0 -2.398,0 -16.684,0 -30.981,-4.75 -42.875,-16.67 -11.934,-9.54 -16.719,-23.83 -16.719,-40.52 0,-9.58 0,-19.09 4.785,-26.27 4.75,-9.49 11.934,-16.69 19.047,-21.43 v -16.69 c -11.898,7.15 -21.445,14.32 -28.59,26.23 -7.14,11.89 -9.535,23.84 -9.535,38.16 0,19.07 7.145,38.12 21.438,52.44 14.324,14.29 33.402,21.44 54.847,21.44 z m 0,152.6 v -14.3 H 612.5 c -7.148,0 -11.934,0 -14.32,-2.39 -4.758,0 -7.149,0 -9.508,-2.39 -7.184,-2.39 -9.574,-4.79 -14.332,-11.93 -2.387,-4.75 -4.746,-9.55 -4.746,-16.69 0,-9.53 4.746,-19.04 11.894,-23.82 7.184,-4.8 19.078,-7.19 33.375,-7.19 h 19.082 v -14.3 H 612.5 c -19.078,0 -33.402,4.8 -40.547,11.95 -9.543,7.14 -14.293,19.06 -14.293,33.36 0,16.69 4.75,28.62 11.934,35.77 9.504,7.15 23.828,11.93 42.906,11.93 z m 0,174.03 v -14.29 H 574.34 v -28.62 c 0,-19.08 7.148,-31.01 16.691,-42.9 9.535,-9.54 23.832,-14.31 42.914,-14.31 v -14.32 c -11.902,0 -23.84,2.36 -33.379,7.14 -11.894,4.8 -19.078,11.95 -26.226,21.49 -4.746,4.74 -7.145,11.89 -9.535,19.07 -2.395,7.12 -2.395,19.09 -2.395,33.38 v 33.36 z m 0,69.13 h -7.152 v 59.61 H 574.34 v -59.61 h -14.285 v 73.94 h 73.89 z m 0,-183.57 v 14.32 c 9.532,0 19.078,2.37 26.223,4.77 9.535,4.74 14.324,9.54 21.469,14.28 2.355,4.76 7.14,11.93 7.14,16.69 2.399,4.76 2.399,14.33 2.399,26.22 v 23.87 h -57.231 v 14.29 h 71.524 v -40.54 c 0,-11.91 0,-21.45 -2.399,-28.6 -2.355,-7.17 -7.14,-14.29 -11.894,-19.07 -7.184,-9.54 -14.297,-14.29 -23.863,-19.09 -11.903,-4.78 -21.446,-7.14 -33.368,-7.14 z m 0,-73.89 v 14.3 h 69.125 v -14.3 z m 0,-78.71 v 14.3 h 69.125 v -14.3 z m 0,-76.28 v 16.69 c 9.532,0 19.078,-2.35 28.614,-7.15 7.144,-2.39 16.687,-9.54 23.832,-16.68 7.179,-7.18 11.933,-14.29 14.324,-21.47 4.754,-9.51 7.144,-19.07 7.144,-28.58 0,-14.32 -4.789,-26.27 -11.929,-38.16 -7.153,-11.91 -16.684,-21.47 -28.617,-28.61 v 19.07 c 7.179,4.74 14.324,11.94 19.078,21.43 4.785,7.18 7.179,16.69 7.179,26.27 0,16.69 -7.179,28.58 -19.078,40.52 -11.933,11.92 -23.867,16.67 -40.547,16.67 z m 0,-326.62 v 14.28 c 16.68,0 31,4.8 42.934,16.72 11.898,11.95 16.691,26.23 16.691,42.92 0,7.15 0,11.9 -2.394,19.08 -2.399,4.74 -4.785,11.91 -9.539,16.69 -7.145,7.14 -14.324,11.89 -21.469,16.68 -9.543,2.39 -16.691,4.78 -26.223,4.78 v 0 14.3 0 c 9.532,0 19.078,0 28.614,-4.79 9.543,-4.75 16.687,-9.51 23.832,-16.69 7.179,-7.14 11.933,-14.28 16.679,-23.83 2.399,-7.14 4.789,-16.69 4.789,-26.22 0,-9.54 -2.39,-19.08 -4.789,-28.62 -4.746,-9.53 -9.5,-16.68 -16.679,-23.82 -7.145,-7.2 -14.289,-11.94 -23.832,-16.69 -9.536,-2.4 -19.082,-4.79 -28.614,-4.79 z m 0,-195.5 v 73.92 l 69.125,7.17 7.188,-73.918 -11.934,-2.391 -7.148,61.989 -50.055,-7.149 7.145,-59.621 z m 0,-150.172 85.817,97.723 -7.145,16.687 -78.672,-23.808 v -14.32 l 66.77,21.441 -66.77,-78.652 z m 0,-23.859 v 14.312 l 107.285,33.379 4.786,-14.332 z M 755.527,544.191 v -14.3 l -26.191,-16.692 -11.934,9.551 z m 0,135.899 v -16.68 l -69.136,-45.301 26.226,-42.918 -11.902,-7.14 -33.402,54.828 z m -114.406,1244.5 v -59.61 h -7.176 v 73.94 h 71.524 v -73.94 h -14.293 v 59.61 z M 788.895,563.25 v -14.289 l -7.114,-4.77 7.114,-4.769 V 522.75 l -19.047,14.32 -14.321,-7.179 v 14.3 z m 0,133.531 V 682.492 L 755.527,663.41 v 16.68 l 33.368,19.07 z m 0,-14.289 v 14.289 l 7.179,-9.543 z m 0,-159.742 v 16.672 l 35.761,-28.613 23.864,71.531 -59.625,-33.379 v 14.289 l 62.023,35.781 14.293,-11.91 -47.699,-145.449 -11.903,9.578 14.297,45.262 z M 1053.54,301.02 v -35.778 l -16.69,9.567 z m 0,119.21 v -14.308 l -109.657,-78.652 -9.535,7.101 35.757,147.859 11.903,-7.179 -30.985,-126.332 z m 0,-14.308 v 14.308 l 2.39,4.75 11.94,-9.488 z m 116.83,-181.184 v -16.687 l -4.75,2.398 z m 0,135.903 V 346.32 l -52.45,31.012 -26.23,-42.961 50.06,-30.973 -7.15,-11.898 -50.05,30.98 -28.62,-42.898 52.45,-31.012 -7.14,-11.91 -47.7,28.582 v 35.778 l 59.62,95.39 z m 0,-11.922 v 11.922 l 7.14,-2.403 z m 0,-140.668 v 16.687 l 52.45,116.813 35.75,-14.281 c 7.15,-4.79 14.34,-7.18 19.09,-9.571 2.36,-4.758 7.14,-7.097 9.54,-11.898 2.39,-7.18 4.75,-14.301 4.75,-21.469 0,-7.141 0,-14.293 -2.36,-21.441 -4.79,-9.539 -11.93,-16.719 -21.47,-21.461 -9.55,-4.77 -19.08,-4.77 -28.62,-2.371 l 9.54,-64.387 -16.69,7.148 -9.53,78.68 11.93,-4.762 c 9.54,-2.386 16.68,-4.789 23.82,-2.386 7.15,2.386 11.94,9.539 16.69,16.687 2.4,4.77 2.4,9.543 2.4,14.293 0,2.398 0,7.168 -2.4,11.918 -2.35,2.371 -4.75,7.148 -7.14,9.551 -2.4,2.39 -9.55,4.801 -19.08,9.539 l -19.08,9.539 -52.45,-119.199 z m 205.05,81.058 v -14.3 l -26.23,4.773 -21.48,-114.434 28.63,-4.796 c 7.15,-2.383 14.29,-2.383 19.08,-2.383 V 143.66 c -7.19,0 -16.7,2.391 -31.02,4.801 l -33.37,7.141 28.61,140.648 z m 0,-145.449 v 14.309 c 9.49,2.383 19.07,4.773 26.21,9.551 11.91,7.152 19.06,21.449 21.45,40.531 2.39,7.14 2.39,16.687 0,26.23 -2.39,7.149 -4.77,14.289 -9.54,21.457 -4.76,4.762 -9.55,9.504 -14.3,11.903 -4.75,2.398 -11.93,4.789 -23.82,7.168 v 14.3 h 2.38 c 11.9,-2.379 21.44,-7.179 28.59,-9.527 7.15,-4.773 11.92,-9.543 16.69,-14.34 7.17,-9.504 11.93,-19.07 14.28,-28.582 2.41,-11.922 2.41,-21.469 0,-33.359 -2.35,-11.942 -7.11,-23.871 -11.89,-33.379 -7.16,-7.18 -16.69,-14.32 -26.23,-19.082 -7.14,-4.789 -14.33,-4.789 -21.44,-7.18 0,0 0,0 -2.38,0 z m 145.4,157.36 v -26.211 l -9.52,16.691 -16.71,-73.91 26.23,2.379 v -11.918 l -31.01,-4.75 -9.51,-47.699 h -14.32 l 33.4,150.199 19.06,2.39 z m 61.99,-112.051 v -16.688 l -4.79,-2.359 -23.82,42.867 -33.38,-4.738 v 11.918 l 26.23,4.769 -26.23,50.071 v 26.211 z m 0,135.91 v -21.481 l -9.52,16.692 z m 0,-152.598 v 16.688 l 9.54,-16.688 z m 66.76,178.778 v -11.887 c -2.38,0 -7.17,-2.391 -9.53,-2.391 -7.18,0 -14.32,-4.75 -23.85,-9.511 l -23.84,-11.93 57.22,-102.551 v 0 -14.277 l -4.77,-4.793 -61.99,109.679 v 21.481 l 26.23,14.293 c 11.93,4.777 19.08,9.547 28.62,11.887 2.38,0 7.14,0 11.91,0 z m 216.96,23.871 30.97,-42.899 -11.87,-7.152 -31.03,42.902 -90.61,45.309 11.94,9.512 73.91,-38.133 -14.31,83.472 14.31,9.508 z M 1649.57,198.512 v 14.277 l 26.25,14.332 c 14.29,9.539 26.18,19.051 28.57,33.379 4.79,14.309 0,28.609 -7.13,45.301 -4.76,9.539 -11.93,14.289 -16.69,21.469 -7.15,4.761 -14.33,7.101 -23.82,9.511 -2.41,0 -4.8,0 -7.18,2.391 v 11.887 c 2.38,0 7.18,0 9.52,0 11.95,-2.34 21.48,-7.11 28.62,-14.278 9.55,-4.75 16.68,-14.301 21.47,-23.84 7.14,-11.921 9.51,-21.441 11.9,-33.359 0,-11.941 -2.39,-23.844 -7.13,-33.41 -2.41,-7.113 -7.15,-11.891 -11.95,-16.692 -7.15,-4.742 -14.29,-11.89 -28.58,-19.031 z m 388.6,276.539 -11.89,-14.289 -38.15,35.75 42.9,42.91 -11.93,11.949 -40.53,-45.312 -35.75,35.761 40.52,42.91 -9.52,9.54 -52.43,-52.45 104.89,-100.148 11.89,14.297 z m 0,157.34 V 620.5 l -19.07,-2.391 19.07,-9.519 v -14.32 l -38.16,21.429 7.18,14.332 z m 0,-11.891 v 11.891 l 116.84,7.179 -109.7,59.59 7.17,11.942 123.97,-69.141 -7.15,-16.68 z m 0,-26.23 v 14.32 l 93,-50.078 -7.18,-11.953 z m 0,-138.301 v 19.082 l 28.63,31.008 9.53,-9.547 z m 159.74,338.562 v -14.293 l -104.89,26.211 19.07,73.903 14.29,-4.75 -14.29,-57.204 47.67,-14.328 16.69,59.602 11.92,-4.762 -14.33,-57.199 z m 0,138.27 V 918.52 l -78.68,9.519 2.37,14.293 z m 0,269.419 v -95.38 h -69.12 v 14.32 h 64.34 v 66.74 h -64.34 v 14.32 z m 0,209.81 v -14.3 c -16.69,0 -30.98,-4.79 -42.9,-16.71 -11.92,-11.95 -16.69,-26.24 -16.69,-42.92 0,-4.78 0,-11.9 2.34,-19.08 2.43,-4.74 7.2,-11.89 9.56,-16.69 7.15,-7.14 14.33,-11.89 21.48,-14.28 9.52,-4.79 16.67,-7.18 26.21,-7.18 v 0 -14.3 0 c -9.54,0 -19.07,2.38 -28.61,4.79 -9.54,4.76 -16.69,9.51 -23.83,16.69 -7.15,7.14 -11.94,16.68 -16.68,23.83 -2.41,9.54 -4.8,16.69 -4.8,28.61 0,9.51 2.39,19.09 4.8,26.23 4.74,9.53 9.53,16.69 16.68,23.84 7.14,7.17 14.29,14.29 23.83,16.67 9.54,4.8 19.07,4.8 28.61,4.8 z m 0,123.96 v -14.32 l -52.44,-33.36 h 52.44 v -11.94 h -71.53 v 16.69 z m 0,47.67 v -14.29 h -71.53 v 14.29 z m 0,209.81 v -14.3 c -16.69,0 -30.98,-7.17 -42.9,-19.08 -9.54,-9.54 -16.69,-23.86 -16.69,-40.55 0,-7.12 2.34,-14.3 2.34,-19.04 2.43,-7.15 7.2,-11.95 11.95,-16.73 4.76,-7.11 11.94,-11.89 21.43,-16.68 7.18,-4.75 16.72,-7.11 23.87,-7.11 v 0 -14.33 0 c -9.54,0 -19.07,2.37 -28.61,7.15 -9.54,2.39 -16.69,9.54 -23.83,16.69 -7.15,7.17 -11.94,14.28 -16.68,21.46 -2.41,9.55 -4.8,19.09 -4.8,28.59 0,9.57 2.39,19.08 7.18,28.66 2.36,7.11 7.15,16.67 14.3,23.8 7.14,7.17 14.29,11.93 23.83,14.32 9.54,4.75 19.07,7.15 28.61,7.15 z m 0,145.45 v -23.88 c 0,2.39 -2.39,4.79 -2.39,7.17 -7.15,4.77 -14.3,7.11 -21.48,7.11 -4.74,0 -9.49,0 -14.28,-2.34 -4.75,-2.39 -7.15,-4.77 -9.54,-7.15 -4.75,-2.4 -4.75,-7.17 -7.13,-9.54 0,-4.75 0,-11.93 0,-21.47 v -21.44 h 54.82 v -14.29 h -69.12 v 38.12 c 0,9.53 0,16.68 0,21.45 2.38,4.77 4.74,9.55 7.15,14.32 4.72,4.76 9.53,9.54 16.67,14.32 7.15,2.37 14.32,4.73 21.43,4.73 9.58,0 16.72,-2.36 23.87,-7.11 z m 0,-23.88 v 23.88 c 2.4,-2.4 2.4,-2.4 4.75,-4.8 7.14,-4.8 11.94,-14.29 11.94,-23.83 l 57.23,35.74 v -16.71 l -69.17,-42.86 v 11.9 c 0,7.18 -2.35,11.93 -4.75,16.68 z m 0,-61.95 v 14.29 h 73.92 v -14.29 z m 0,-207.44 v 14.33 c 19.07,0 33.38,7.11 45.3,19.05 11.92,9.52 16.69,23.82 16.69,40.51 0,16.69 -4.77,31.01 -16.69,42.95 -11.92,9.51 -26.23,16.68 -45.3,16.68 v 14.3 c 11.89,0 19.07,-2.4 28.6,-4.8 9.55,-4.74 16.7,-9.5 23.85,-14.29 7.15,-7.14 14.29,-16.69 16.69,-26.18 4.78,-7.19 7.14,-19.09 7.14,-28.66 0,-21.44 -7.14,-38.13 -21.44,-52.45 -14.31,-14.29 -33.36,-21.44 -54.84,-21.44 z m 0,-123.98 v 14.32 l 54.84,35.78 -54.84,-2.4 v 14.29 h 73.92 v -16.69 z m 0,-45.3 v 11.94 h 73.92 v -11.94 z m 0,-209.8 v 14.3 c 19.07,0 33.38,7.18 45.3,16.69 11.92,11.95 16.69,26.24 16.69,42.93 0,16.69 -7.15,30.98 -19.07,40.53 -9.54,11.92 -23.85,16.71 -42.92,16.71 v 14.3 c 11.89,0 19.07,0 28.6,-4.8 7.18,-2.38 16.7,-7.14 23.85,-14.29 7.15,-7.18 11.91,-14.29 16.69,-23.87 4.78,-9.49 7.14,-19.07 7.14,-30.97 0,-19.08 -7.14,-35.77 -21.44,-50.05 -14.31,-14.3 -33.36,-21.48 -54.84,-21.48 z m 0,-159.73 v 95.38 h 73.92 v -14.32 h -66.76 v -66.74 h 66.76 v -14.32 z m 0,-188.32 v 14.281 l 52.45,-4.762 4.77,50.07 14.31,-2.371 -7.17,-64.367 z m 0,-138.282 v 14.293 l 23.84,-7.152 16.69,59.601 14.31,-4.781 -19.06,-71.508 -35.78,9.547 v 0"
         style="fill:#231f20;fill-opacity:1;fill-rule:evenodd;stroke:none"
         id="path34" /><path
         d="m 2143.09,1867.38 h 128.74 v -14.29 h -143.04 v 38.12 c 0,9.53 0,16.68 0,21.45 2.38,4.77 4.74,9.55 7.15,14.32 4.72,4.76 9.53,9.54 16.67,14.32 7.15,2.37 14.32,4.73 21.43,4.73 9.58,0 19.09,-4.73 28.62,-11.91 7.14,-4.8 11.94,-14.29 11.94,-23.83 l 57.23,35.74 v -16.71 l -69.17,-42.86 v 11.9 c 0,9.53 -2.35,16.68 -7.14,23.85 -7.15,4.77 -14.3,7.11 -21.48,7.11 -4.74,0 -9.49,0 -14.28,-2.34 -4.75,-2.39 -7.15,-4.77 -9.54,-7.15 -4.75,-2.4 -4.75,-7.17 -7.13,-9.54 0,-4.75 0,-11.93 0,-21.47 z m 54.82,-221.73 c -9.54,0 -19.07,2.37 -28.61,7.15 -9.54,2.39 -16.69,9.54 -23.83,16.69 -7.15,7.17 -11.94,14.28 -16.68,21.46 -2.41,9.55 -4.8,19.09 -4.8,28.59 0,9.57 2.39,19.08 7.18,28.66 2.36,7.11 7.15,16.67 14.3,23.8 7.14,7.17 14.29,11.93 23.83,14.32 9.54,4.75 19.07,7.15 28.61,7.15 11.89,0 19.07,-2.4 28.6,-4.8 9.55,-4.74 16.7,-9.5 23.85,-14.29 7.15,-7.14 14.29,-16.69 16.69,-26.18 4.78,-7.19 7.14,-19.09 7.14,-28.66 0,-21.44 -7.14,-38.13 -21.44,-52.45 -14.31,-14.29 -33.36,-21.44 -54.84,-21.44 z m 0,14.33 c 19.07,0 33.38,7.11 45.3,19.05 11.92,9.52 16.69,23.82 16.69,40.51 0,16.69 -4.77,31.01 -16.69,42.95 -11.92,9.51 -26.23,16.68 -45.3,16.68 -16.69,0 -30.98,-7.17 -42.9,-19.08 -9.54,-9.54 -16.69,-23.86 -16.69,-40.55 0,-7.12 2.34,-14.3 2.34,-19.04 2.43,-7.15 7.2,-11.95 11.95,-16.73 4.76,-7.11 11.94,-11.89 21.43,-16.68 7.18,-4.75 16.72,-7.11 23.87,-7.11 z m 54.84,-88.21 -126.37,-2.4 v 14.29 h 145.45 v -16.69 l -126.36,-78.66 h 126.36 v -11.94 h -145.45 v 16.69 z m -54.84,-305.2 c -9.54,0 -19.07,2.38 -28.61,4.79 -9.54,4.76 -16.69,9.51 -23.83,16.69 -7.15,7.14 -11.94,16.68 -16.68,23.83 -2.41,9.54 -4.8,16.69 -4.8,28.61 0,9.51 2.39,19.09 4.8,26.23 4.74,9.53 9.53,16.69 16.68,23.84 7.14,7.17 14.29,14.29 23.83,16.67 9.54,4.8 19.07,4.8 28.61,4.8 9.54,0 19.07,0 28.6,-4.8 7.18,-2.38 16.7,-7.14 23.85,-14.29 7.15,-7.18 11.91,-14.29 16.69,-23.87 4.78,-9.49 7.14,-19.07 7.14,-30.97 0,-19.08 -7.14,-35.77 -21.44,-50.05 -16.69,-14.3 -33.36,-21.48 -54.84,-21.48 z m 0,14.3 c 16.69,0 33.38,4.77 45.3,16.69 11.92,11.95 16.69,26.24 16.69,42.93 0,16.69 -7.15,30.98 -19.07,40.53 -11.94,11.92 -26.23,16.71 -42.92,16.71 -16.69,0 -30.98,-4.79 -42.9,-16.71 -11.92,-11.95 -16.69,-26.24 -16.69,-42.92 0,-4.78 0,-11.9 2.34,-19.08 2.43,-4.74 7.2,-11.89 9.56,-16.69 7.15,-7.14 14.33,-11.89 21.48,-14.28 9.52,-4.79 16.67,-7.18 26.21,-7.18 z m 73.92,-159.71 v -14.32 h -143.04 v 14.32 h 64.34 v 66.74 h -64.34 v 14.32 h 143.04 v -14.32 h -66.76 v -66.74 z m -2.39,-145.422 -7.17,-64.367 -143.04,16.668 2.37,14.293 128.76,-14.293 4.77,50.07 z m -109.68,-171.668 16.69,59.602 11.92,-4.762 -14.33,-57.199 47.71,-14.332 16.69,59.601 14.31,-4.781 -19.06,-71.508 -140.67,35.758 19.07,73.903 14.29,-4.75 -14.29,-57.204 z m -4.75,-164.5 -109.7,59.59 7.17,11.942 123.97,-69.141 -7.15,-16.68 -150.2,-7.172 112.07,-59.597 -7.18,-11.953 -123.98,69.14 7.18,14.332 z m -176.44,-133.511 40.53,45.312 11.93,-11.949 -42.9,-42.91 38.15,-35.75 40.52,45.297 9.53,-9.547 -50.05,-54.84 -104.89,100.148 52.43,52.45 9.52,-9.54 -40.52,-42.91 z m -112.04,-131.129 30.97,-42.899 -11.87,-7.152 -31.03,42.902 -90.61,45.309 11.94,9.512 73.91,-38.133 -14.31,83.472 14.31,9.508 z m -293.24,-54.84 35.75,19.082 c 11.93,4.777 19.08,9.547 28.62,11.887 7.14,0 14.29,2.41 21.43,0 11.95,-2.34 21.48,-7.11 28.62,-14.278 9.55,-4.75 16.68,-14.301 21.47,-23.84 7.14,-11.921 9.51,-21.441 11.9,-33.359 0,-11.941 -2.39,-23.844 -7.13,-33.41 -2.41,-7.113 -7.15,-11.891 -11.95,-16.692 -7.15,-4.742 -14.29,-11.89 -28.58,-19.031 l -28.62,-16.73 z m 19.06,-4.75 57.22,-102.551 26.25,14.332 c 14.29,9.539 26.18,19.051 28.57,33.379 4.79,14.309 0,28.609 -7.13,45.301 -4.76,9.539 -11.93,14.289 -16.69,21.469 -7.15,4.761 -14.33,7.101 -23.82,9.511 -4.8,2.391 -11.95,2.391 -16.71,0 -7.18,0 -14.32,-4.75 -23.85,-9.511 z m -45.3,-90.602 -35.75,66.762 -16.71,-73.91 z m -66.75,-69.136 h -14.32 l 33.4,150.199 19.06,2.39 73.91,-135.91 -14.33,-2.359 -23.82,42.867 -64.39,-9.488 z m -140.66,140.648 38.16,-7.141 c 11.9,-2.379 21.44,-7.179 28.59,-9.527 7.15,-4.773 11.92,-9.543 16.69,-14.34 7.17,-9.504 11.93,-19.07 14.28,-28.582 2.41,-11.922 2.41,-21.469 0,-33.359 -2.35,-11.942 -7.11,-23.871 -11.89,-33.379 -7.16,-7.18 -16.69,-14.32 -26.23,-19.082 -7.14,-4.789 -14.33,-4.789 -21.44,-7.18 -7.17,0 -19.08,2.391 -33.4,4.801 l -33.37,7.141 z m 9.55,-16.668 -21.48,-114.434 28.63,-4.796 c 19.08,-4.75 33.36,-2.383 45.29,7.168 11.91,7.152 19.06,21.449 21.45,40.531 2.39,7.14 2.39,16.687 0,26.23 -2.39,7.149 -4.77,14.289 -9.54,21.457 -4.76,4.762 -9.55,9.504 -14.3,11.903 -4.75,2.398 -11.93,4.789 -23.82,7.168 z m -119.23,45.297 -52.45,-119.199 -11.89,4.769 57.2,131.102 35.75,-14.281 c 7.15,-4.79 14.34,-7.18 19.09,-9.571 2.36,-4.758 7.14,-7.097 9.54,-11.898 2.39,-7.18 4.75,-14.301 4.75,-21.469 0,-7.141 0,-14.293 -2.36,-21.441 -4.79,-9.539 -11.93,-16.719 -21.47,-21.461 -9.55,-4.77 -19.08,-4.77 -28.62,-2.371 l 9.54,-64.387 -16.69,7.148 -9.53,78.68 11.93,-4.762 c 9.54,-2.386 16.68,-4.789 23.82,-2.386 7.15,2.386 11.94,9.539 16.69,16.687 2.4,4.77 2.4,9.543 2.4,14.293 0,2.398 0,7.168 -2.4,11.918 -2.35,2.371 -4.75,7.148 -7.14,9.551 -2.4,2.39 -9.55,4.801 -19.08,9.539 z m -138.27,9.492 50.06,-30.973 -7.15,-11.898 -50.05,30.98 -28.62,-42.898 52.45,-31.012 -7.14,-11.91 -64.39,38.149 76.31,121.601 64.35,-38.172 -7.14,-11.918 -52.45,31.012 z m -121.585,147.859 11.903,-7.179 -30.985,-126.332 104.907,76.261 11.94,-9.488 -123.987,-88.222 -9.535,7.101 z m -145.449,28.579 23.864,71.531 -66.739,-38.149 z m -95.32,2.39 -11.934,9.551 133.516,76.281 14.293,-11.91 -47.699,-145.449 -11.903,9.578 14.297,45.262 -50.058,40.558 z m -28.621,54.852 -33.402,54.828 121.582,76.281 7.179,-11.922 -109.683,-69.129 26.226,-42.918 z m -81.07,197.898 121.585,38.121 4.786,-14.332 -138.305,-40.476 -4.746,16.687 97.75,112.012 -119.227,-38.129 -4.75,11.93 135.879,42.886 7.145,-16.687 z m 21.476,224.082 7.145,-59.621 h -14.321 l -7.152,59.621 -50.055,-4.781 4.75,-61.961 h -14.293 l -7.14,73.891 143.015,14.32 7.188,-73.918 -11.934,-2.391 -7.148,61.989 z m -7.176,281.329 c 9.532,0 19.078,0 28.614,-4.79 9.543,-4.75 16.687,-9.51 23.832,-16.69 7.179,-7.14 11.933,-14.28 16.679,-23.83 2.399,-7.14 4.789,-16.69 4.789,-26.22 0,-9.54 -2.39,-19.08 -4.789,-28.62 -4.746,-9.53 -9.5,-16.68 -16.679,-23.82 -7.145,-7.2 -14.289,-11.94 -23.832,-16.69 -9.536,-2.4 -19.082,-4.79 -28.614,-4.79 -9.547,0 -19.082,2.39 -28.593,4.79 -7.172,2.39 -14.321,7.15 -21.465,14.29 -9.547,7.18 -14.293,14.3 -19.082,23.87 -4.75,9.49 -7.145,19.04 -7.145,30.97 0,19.08 7.145,38.17 23.828,52.45 14.297,14.29 31.012,19.08 52.457,19.08 z m 0,-14.3 c -16.687,0 -30.98,-4.78 -42.914,-16.72 -11.933,-11.92 -19.078,-26.21 -19.078,-42.9 0,-14.3 7.145,-28.58 19.078,-40.53 11.934,-11.92 26.227,-16.72 42.914,-16.72 16.68,0 31,4.8 42.934,16.72 11.898,11.95 16.691,26.23 16.691,42.92 0,7.15 0,11.9 -2.394,19.08 -2.399,4.74 -4.785,11.91 -9.539,16.69 -7.145,7.14 -14.324,11.89 -21.469,16.68 -9.543,2.39 -16.691,4.78 -26.223,4.78 z m 33.368,90.58 c 7.179,4.74 14.324,11.94 19.078,21.43 4.785,7.18 7.179,16.69 7.179,26.27 0,16.69 -7.179,28.58 -19.078,40.52 -11.933,11.92 -26.226,16.67 -42.945,16.67 -16.684,0 -30.981,-4.75 -42.875,-16.67 -11.934,-9.54 -16.719,-23.83 -16.719,-40.52 0,-9.58 0,-19.09 4.785,-26.27 4.75,-9.49 11.934,-16.69 19.047,-21.43 v -16.69 c -11.898,7.15 -21.445,14.32 -28.59,26.23 -7.14,11.89 -9.535,23.84 -9.535,38.16 0,19.07 7.145,38.12 21.438,52.44 14.324,14.29 33.402,21.44 54.847,21.44 9.532,0 19.078,-2.35 28.614,-7.15 7.144,-2.39 16.687,-9.54 23.832,-16.68 7.179,-7.18 11.933,-14.29 14.324,-21.47 4.754,-9.51 7.144,-19.07 7.144,-28.58 0,-14.32 -4.789,-26.27 -11.929,-38.16 -7.153,-11.91 -16.684,-21.47 -28.617,-28.61 z m 35.757,274.18 v -14.3 H 612.5 c -7.148,0 -11.934,0 -14.32,-2.39 -4.758,0 -7.149,0 -9.508,-2.39 -7.184,-2.39 -9.574,-4.79 -14.332,-11.93 -2.387,-4.75 -4.746,-9.55 -4.746,-16.69 0,-9.53 4.746,-19.04 11.894,-23.82 7.184,-4.8 19.078,-7.19 33.375,-7.19 h 88.207 v -14.3 H 612.5 c -19.078,0 -33.402,4.8 -40.547,11.95 -9.543,7.14 -14.293,19.06 -14.293,33.36 0,16.69 4.75,28.62 11.934,35.77 9.504,7.15 23.828,11.93 42.906,11.93 z m 2.399,174.03 v -40.54 c 0,-11.91 0,-21.45 -2.399,-28.6 -2.355,-7.17 -7.14,-14.29 -11.894,-19.07 -7.184,-9.54 -14.297,-14.29 -23.863,-19.09 -11.903,-4.78 -21.446,-7.14 -33.368,-7.14 -11.902,0 -23.84,2.36 -33.379,7.14 -11.894,4.8 -19.078,11.95 -26.226,21.49 -4.746,4.74 -7.145,11.89 -9.535,19.07 -2.395,7.12 -2.395,19.09 -2.395,33.38 v 33.36 z m -14.293,-14.29 H 574.34 v -28.62 c 0,-19.08 7.148,-31.01 16.691,-42.9 9.535,-9.54 23.832,-14.31 42.914,-14.31 9.532,0 19.078,2.37 26.223,4.77 9.535,4.74 14.324,9.54 21.469,14.28 2.355,4.76 7.14,11.93 7.14,16.69 2.399,4.76 2.399,14.33 2.399,26.22 z m -50.055,143.03 v -59.61 h -14.328 v 59.61 H 574.34 v -59.61 h -14.285 v 73.94 h 145.414 v -73.94 h -14.293 v 59.61 z"
         style="fill:none;stroke:#231f20;stroke-width:4.399;stroke-linecap:butt;stroke-linejoin:miter;stroke-miterlimit:4;stroke-dasharray:none;stroke-opacity:1"
         id="path36" /><path
         d="m 776.996,2329.88 v 95.37 h 33.371 v -11.91 h -23.828 v -28.64 h 23.828 v -7.11 -4.8 h -23.828 v -33.36 h 26.227 v -4.78 -4.77 z m -54.848,95.37 h 9.547 l 11.934,-81.04 11.898,81.04 h 4.782 7.14 l -16.679,-95.37 h -7.141 -7.18 z m -21.433,0 h 9.543 v -95.37 h -9.543 z m -50.09,-95.37 h -9.504 v 95.37 h 16.684 l 19.074,-83.42 v 83.42 h 4.758 4.754 v -95.37 h -7.145 -9.543 l -19.078,81.08 z m 195.508,95.37 v -11.91 c -2.399,0 -2.399,0 -2.399,0 h -9.504 v -31 h 9.504 c 0,0 0,0 2.399,2.36 v -11.91 c -2.399,0 -2.399,0 -4.789,0 h -7.114 v -42.91 h -4.789 -4.785 v 95.37 h 4.785 z m -219.34,-71.53 c 0,-9.51 0,-14.29 -4.75,-19.07 -2.398,-4.77 -9.543,-7.15 -16.691,-7.15 -7.172,0 -11.93,2.38 -14.321,7.15 -4.758,4.78 -7.144,9.56 -7.144,19.07 v 71.53 h 4.785 7.113 v -69.13 c 0,-4.8 0,-9.55 2.395,-11.91 2.386,-4.78 4.785,-4.78 7.172,-4.78 4.753,0 7.148,0 9.511,4.78 2.395,2.36 2.395,7.11 2.395,11.91 v 69.13 h 4.785 4.75 z m 305.156,71.53 h 9.543 v -95.37 h -9.543 z m -23.824,-28.58 v 2.35 c 0,7.15 0,9.53 0,11.94 -2.398,2.38 -4.758,4.75 -7.152,4.75 -4.782,0 -7.18,-2.37 -9.535,-2.37 -2.399,-2.38 -2.399,-7.17 -2.399,-11.93 0,-2.39 0,-7.15 2.399,-9.53 2.355,0 4.753,-4.8 9.535,-7.18 7.152,-4.76 14.297,-9.52 16.683,-14.29 2.395,-2.4 2.395,-7.15 2.395,-14.29 0,-9.55 0,-16.69 -4.781,-21.47 -4.758,-4.77 -9.543,-7.15 -16.692,-7.15 -7.14,0 -14.293,2.38 -16.687,7.15 -2.387,4.78 -4.782,11.92 -4.782,21.47 v 2.38 2.4 h 9.571 v -2.4 c 0,-7.18 2.359,-11.93 2.359,-14.29 2.399,-4.78 4.754,-4.78 9.539,-4.78 4.789,0 7.149,0 9.547,2.4 2.387,2.38 2.387,7.14 2.387,11.89 0,4.78 0,7.18 -2.387,9.54 -2.398,2.38 -4.758,7.15 -11.934,9.53 -7.152,4.8 -11.906,9.55 -14.3,14.29 -2.387,2.4 -2.387,7.18 -2.387,14.33 0,7.14 0,14.3 4.781,19.05 2.395,2.4 9.508,4.79 16.688,4.79 7.152,0 11.898,0 14.297,-4.79 2.386,-4.75 4.781,-9.5 4.781,-19.05 v -2.39 -2.35 z m -61.992,-23.88 v 11.91 c 2.387,0 4.785,0 7.144,2.38 2.391,2.4 2.391,7.18 2.391,14.33 v 0 c 0,4.76 0,7.14 -2.391,9.55 -2.359,2.38 -4.757,2.38 -7.144,2.38 v 11.91 h 2.387 c 4.757,0 9.546,-2.39 14.293,-7.14 2.398,-2.4 4.789,-9.56 4.789,-16.7 v 0 c 0,-7.15 -2.391,-14.33 -7.176,-19.07 -2.36,-2.4 -4.758,-2.4 -9.508,-4.75 4.75,0 9.508,-2.41 9.508,-4.8 2.387,-2.38 4.785,-7.15 4.785,-14.29 0,-7.18 0,-11.93 0,-14.29 v -2.38 c 0,-2.4 0,-4.8 0,-7.18 2.391,-2.42 2.391,-2.42 2.391,-4.77 h -4.789 -7.145 c 0,2.35 0,4.77 0,7.15 v 2.4 2.4 c -2.391,4.74 -2.391,9.49 -2.391,14.29 0,4.78 0,9.52 -2.359,11.89 0,2.4 -2.398,4.78 -4.785,4.78 z m 133.515,52.46 v -11.91 c -2.398,0 -2.398,0 -2.398,0 h -9.535 v -73.91 h 9.535 2.398 v -9.55 h -16.687 -7.145 v 95.37 h 7.145 11.934 c 2.355,0 2.355,0 4.753,0 z m 0,-95.37 v 9.55 c 2.36,0 7.149,2.4 7.149,4.78 2.387,2.36 2.387,7.11 2.387,14.29 v 38.17 c 0,7.12 0,11.88 -2.387,14.29 -2.402,2.38 -4.789,2.38 -7.149,2.38 v 11.91 c 7.149,0 11.934,-2.39 14.293,-7.14 4.786,-4.77 7.139,-11.94 7.139,-21.44 v -38.17 c 0,-9.53 -2.353,-16.67 -4.752,-21.47 -2.387,-4.8 -7.144,-7.15 -14.32,-7.15 z m 54.802,95.37 v -11.91 l -7.11,-52.44 h 7.11 v -9.58 h -9.5 l -4.78,-21.44 h -4.76 -4.79 l 19.09,95.37 z m 0,-73.93 v 9.58 h 9.58 l -9.58,52.44 v 0 0 11.91 0 h 7.18 l 19.08,-95.37 h -7.17 -4.76 l -2.39,21.44 z m 59.64,73.93 v -11.91 c -2.4,0 -2.4,0 -2.4,0 h -9.54 v -73.91 h 9.54 2.4 v -9.55 h -16.69 -4.79 v 95.37 h 4.79 11.9 c 2.39,0 2.39,0 4.79,0 z m 0,-95.37 v 9.55 c 2.39,0 7.15,2.4 7.15,4.78 2.38,2.36 2.38,7.11 2.38,14.29 v 38.17 c 0,7.12 0,11.88 -2.38,14.29 0,2.38 -4.76,2.38 -7.15,2.38 v 11.91 c 7.15,0 11.89,-2.39 14.29,-7.14 4.78,-4.77 7.14,-11.94 7.14,-21.44 v -38.17 c 0,-9.53 -2.36,-16.67 -4.75,-21.47 -2.39,-4.8 -7.15,-7.15 -14.29,-7.15 z m 81.03,95.37 v -11.91 l -9.5,-52.44 h 9.5 v -9.58 h -11.9 l -2.39,-21.44 h -4.76 -4.78 l 16.68,95.37 z m 107.29,-11.91 h -19.08 v 11.91 h 47.7 v -4.79 -7.12 h -19.08 v -83.46 h -4.75 -4.79 z m -28.58,-59.62 c 0,-9.51 -2.4,-14.29 -4.79,-19.07 -4.75,-4.77 -9.54,-7.15 -16.69,-7.15 -7.14,0 -11.93,2.38 -16.68,7.15 -2.39,4.78 -4.79,9.56 -4.79,19.07 v 71.53 h 4.79 4.75 v -69.13 c 0,-4.8 2.4,-9.55 2.4,-11.91 2.39,-4.78 4.74,-4.78 9.53,-4.78 2.4,0 7.15,0 7.15,4.78 2.39,2.36 2.39,7.11 2.39,11.91 v 69.13 h 7.15 4.79 z m -78.71,-2.4 v 9.58 h 7.17 l -7.17,52.44 v 0 0 11.91 0 h 7.17 l 16.69,-95.37 h -4.79 -7.14 l -2.36,21.44 z m 166.92,73.93 v -9.54 c -2.4,0 -7.18,-2.37 -7.18,-4.75 -2.39,-2.41 -2.39,-9.55 -2.39,-14.29 v -35.77 c 0,-9.58 0,-14.33 2.39,-16.69 0,-2.38 2.4,-4.78 7.18,-4.78 v -11.93 c -7.18,0 -14.33,2.38 -16.68,7.15 -2.4,4.78 -4.79,14.32 -4.79,26.25 v 35.77 c 0,9.5 2.39,16.67 4.79,21.44 4.75,4.75 9.5,7.14 16.68,7.14 z m 45.27,-95.37 h -9.51 v 95.37 h 16.69 l 19.05,-83.42 v 83.42 h 4.77 4.77 v -95.37 h -7.15 -9.54 l -19.08,81.08 z m -45.27,-2.38 v 11.93 c 4.75,0 7.15,0 9.51,4.78 2.39,2.36 2.39,7.11 2.39,14.29 v 40.52 c 0,4.77 0,9.53 -2.39,11.94 -2.36,2.38 -4.76,4.75 -9.51,4.75 v 9.54 c 9.51,0 14.3,-2.39 16.68,-7.14 4.77,-4.77 4.77,-11.94 4.77,-23.85 v -38.14 c 0,-9.55 0,-16.69 -4.77,-21.47 -2.38,-4.77 -9.53,-7.15 -16.68,-7.15 z m 116.79,97.75 v -9.54 c -4.75,0 -7.14,-2.37 -7.14,-4.75 -2.38,-2.41 -4.75,-9.55 -4.75,-14.29 v -35.77 c 0,-9.58 2.37,-14.33 2.37,-16.69 2.38,-2.38 4.77,-4.78 9.52,-4.78 v -11.93 c -7.14,0 -14.29,2.38 -16.67,7.15 -2.39,4.78 -4.8,14.32 -4.8,26.25 v 35.77 c 0,9.5 2.41,16.67 4.8,21.44 4.78,4.75 9.53,7.14 16.67,7.14 z m 45.32,-95.37 h -9.56 v 95.37 h 16.71 l 14.29,-76.28 v 0 l 14.32,76.28 h 7.14 9.53 v -95.37 h -4.74 -4.79 v 83.46 0 l -16.69,-83.46 h -4.77 -4.77 l -16.67,83.46 z m -45.32,-2.38 v 11.93 c 4.79,0 7.15,0 9.55,4.78 2.39,2.36 2.39,7.11 2.39,14.29 v 40.52 c 0,4.77 0,9.53 -2.39,11.94 -2.4,2.38 -4.76,4.75 -9.55,4.75 v 9.54 c 7.15,0 14.3,-2.39 16.69,-7.14 4.78,-4.77 4.78,-11.94 4.78,-23.85 v -38.14 c 0,-9.55 0,-16.69 -4.78,-21.47 -2.39,-4.77 -9.54,-7.15 -16.69,-7.15 z m 133.52,97.75 v -11.91 l -9.54,-52.44 h 9.54 v -9.58 h -11.92 l -2.41,-21.44 h -4.73 -4.76 l 16.68,95.37 z m 0,-73.93 v 9.58 h 7.15 l -7.15,52.44 v 0 0 11.91 0 h 7.15 l 16.69,-95.37 h -4.76 -7.15 l -2.38,21.44 z m 81.07,73.93 v -11.91 h -9.53 v -73.91 h 9.53 v 0 -9.55 h -16.67 -4.8 v 95.37 h 4.8 14.29 z m 35.76,-95.37 v 95.37 h 35.77 v -11.91 h -23.87 v -28.64 h 21.48 v -7.11 -4.8 h -21.48 v -33.36 h 23.87 v -4.78 -4.77 z m -35.76,0 v 9.55 c 4.76,0 7.15,2.4 9.51,4.78 2.4,2.36 2.4,7.11 2.4,14.29 v 38.17 c 0,7.12 0,11.88 -2.4,14.29 -2.36,2.38 -4.75,2.38 -9.51,2.38 v 11.91 c 7.15,0 14.29,-2.39 16.69,-7.14 4.74,-4.77 7.15,-11.94 7.15,-21.44 v -38.17 c 0,-9.53 -2.41,-16.67 -4.76,-21.47 -4.79,-4.8 -9.57,-7.15 -16.68,-7.15 z m 128.73,95.37 v -9.54 c -2.4,0 -7.15,-2.37 -7.15,-4.75 -2.39,-4.79 -4.78,-9.55 -4.78,-16.7 v -33.36 c 0,-9.58 2.39,-14.33 2.39,-16.69 2.39,-4.78 4.79,-4.78 9.54,-4.78 v -11.93 h -2.4 c -7.14,0 -11.93,2.38 -14.29,7.15 -2.38,4.78 -4.75,14.32 -4.75,26.25 v 35.77 c 0,9.5 2.37,16.67 4.75,21.44 4.76,4.75 9.54,7.14 16.69,7.14 z m 92.97,-95.37 v 95.37 h 35.76 v -11.91 h -23.82 v -28.64 h 21.44 v -7.11 -4.8 h -21.44 v -33.36 h 23.82 v -4.78 -4.77 z m -14.29,23.84 c 0,-9.51 -2.4,-14.29 -4.79,-19.07 -4.75,-4.77 -9.51,-7.15 -16.68,-7.15 -7.14,0 -11.91,2.38 -14.29,7.15 -4.77,4.78 -7.15,9.56 -7.15,19.07 v 71.53 h 4.75 7.17 v -69.13 c 0,-4.8 0,-9.55 2.38,-11.91 2.38,-4.78 4.77,-4.78 7.14,-4.78 4.78,0 7.17,0 9.56,4.78 0,2.36 2.37,7.11 2.37,11.91 v 69.13 h 4.75 4.79 z m -78.68,-26.22 v 11.93 c 4.74,0 7.16,0 9.54,4.78 2.38,2.36 2.38,7.11 2.38,16.69 v 33.36 c 0,9.53 0,14.29 -2.38,16.7 -2.38,2.38 -4.8,4.75 -9.54,4.75 v 9.54 c 7.16,0 14.31,-2.39 16.69,-7.14 4.76,-2.4 4.76,-9.56 4.76,-19.09 v -35.76 c 0,-9.54 -2.38,-16.69 -4.76,-23.83 l 11.94,2.4 v -11.95 h -11.94 z m 162.11,97.75 v -11.91 h -11.92 v -31 h 9.54 c 0,0 2.38,0 2.38,2.36 v -11.91 h -2.38 -9.54 v -42.91 h -4.77 -4.75 v 95.37 h 4.75 z m 95.4,-11.91 h -19.09 v 11.91 h 47.66 v -4.79 -7.12 h -19.08 v -83.46 h -4.77 -4.72 z m -61.99,-83.46 v 95.37 h 33.36 v -11.91 h -23.84 v -28.64 h 23.84 v -7.11 -4.8 h -23.84 v -33.36 h 26.2 v -4.78 -4.77 z m -33.41,42.91 v 11.91 c 4.79,0 7.18,0 7.18,2.38 2.38,2.4 4.75,7.18 4.75,14.33 v 0 c 0,4.76 -2.37,7.14 -4.75,9.55 0,2.38 -2.39,2.38 -7.18,2.38 v 11.91 h 2.38 c 7.18,0 11.93,-2.39 14.29,-7.14 2.41,-2.4 4.79,-9.56 4.79,-16.7 v 0 c 0,-7.15 -2.38,-14.33 -4.79,-19.07 -2.36,-2.4 -7.11,-2.4 -9.49,-4.75 4.75,0 7.13,-2.41 9.49,-4.8 2.41,-2.38 2.41,-7.15 2.41,-14.29 0,-7.18 0,-11.93 0,-14.29 v -2.38 c 2.38,-2.4 2.38,-4.8 2.38,-7.18 0,-2.42 0,-2.42 0,-4.77 h -4.79 -4.74 c -2.37,2.35 -2.37,4.77 -2.37,7.15 v 2.4 2.4 c 0,4.74 0,9.49 0,14.29 0,4.78 -2.38,9.52 -4.77,11.89 0,2.4 -2.41,4.78 -4.79,4.78 z m 154.97,52.46 v -11.91 l -7.14,-52.44 h 7.14 v -9.58 h -9.52 l -4.8,-21.44 h -4.74 -4.76 l 16.68,95.37 z m 0,-73.93 v 9.58 h 9.56 l -9.56,52.44 v 0 0 11.91 0 h 7.15 l 16.71,-95.37 h -4.77 -4.79 l -4.74,21.44 z m 57.22,73.93 v -11.91 h -9.52 v -31 h 7.11 c 0,0 2.41,0 2.41,2.36 v -11.91 h -2.41 -7.11 v -42.91 h -7.17 -4.75 v 95.37 h 4.75 z m 0,-52.46 v 11.91 c 4.77,0 7.17,0 9.54,2.38 0,2.4 2.38,7.18 2.38,14.33 v 0 c 0,4.76 -2.38,7.14 -2.38,9.55 -2.37,2.38 -4.77,2.38 -9.54,2.38 v 11.91 h 2.39 c 7.15,0 11.92,-2.39 14.29,-7.14 4.78,-2.4 4.78,-9.56 4.78,-16.7 v 0 c 0,-7.15 -2.39,-14.33 -4.78,-19.07 -2.37,-2.4 -4.76,-2.4 -9.51,-4.75 4.75,0 7.14,-2.41 9.51,-4.8 2.39,-2.38 2.39,-7.15 2.39,-14.29 0,-7.18 0,-11.93 2.39,-14.29 v -2.38 c 0,-2.4 0,-4.8 0,-7.18 0,-2.42 0,-2.42 0,-4.77 h -4.78 -4.76 c 0,2.35 0,4.77 -2.38,7.15 v 2.4 2.4 c 0,4.74 0,9.49 0,14.29 0,4.78 -2.37,9.52 -2.37,11.89 -2.4,2.4 -4.78,4.78 -7.17,4.78 z m 54.84,52.46 v -9.54 c -2.4,0 -4.78,-2.37 -7.15,-4.75 -2.39,-2.41 -2.39,-9.55 -2.39,-14.29 v -35.77 c 0,-9.58 0,-14.33 2.39,-16.69 0,-2.38 4.75,-4.78 7.15,-4.78 v -11.93 c -7.15,0 -11.9,2.38 -16.69,7.15 -2.38,4.78 -4.8,14.32 -4.8,26.25 v 35.77 c 0,9.5 2.42,16.67 7.18,21.44 2.41,4.75 7.16,7.14 14.31,7.14 z m 0,-97.75 v 11.93 c 4.77,0 7.15,0 9.54,4.78 2.38,2.36 2.38,7.11 2.38,14.29 v 40.52 c 0,4.77 0,9.53 -2.38,11.94 0,2.38 -4.77,4.75 -9.54,4.75 v 9.54 c 9.54,0 14.29,-2.39 19.07,-7.14 2.39,-4.77 4.77,-11.94 4.77,-23.85 v -38.14 c 0,-9.55 -2.38,-16.69 -7.15,-21.47 -2.4,-4.77 -7.15,-7.15 -16.69,-7.15"
         style="fill:#231f20;fill-opacity:1;fill-rule:evenodd;stroke:none"
         id="path38" /><path
         d="m 2231.29,2339.43 c 4.77,0 7.15,0 9.54,4.78 2.38,2.36 2.38,7.11 2.38,14.29 v 40.52 c 0,4.77 0,9.53 -2.38,11.94 0,2.38 -4.77,4.75 -9.54,4.75 -2.4,0 -4.78,-2.37 -7.15,-4.75 -2.39,-2.41 -2.39,-9.55 -2.39,-14.29 v -35.77 c 0,-9.58 0,-14.33 2.39,-16.69 0,-2.38 4.75,-4.78 7.15,-4.78 z m 0,-11.93 c -7.15,0 -11.9,2.38 -16.69,7.15 -2.38,4.78 -4.8,14.32 -4.8,26.25 v 35.77 c 0,9.5 2.42,16.67 7.18,21.44 2.41,4.75 7.16,7.14 14.31,7.14 9.54,0 14.29,-2.39 19.07,-7.14 2.39,-4.77 4.77,-11.94 4.77,-23.85 v -38.14 c 0,-9.55 -2.38,-16.69 -7.15,-21.47 -2.4,-4.77 -7.15,-7.15 -16.69,-7.15 z m -64.36,54.84 h 7.11 c 4.8,0 9.58,2.36 11.95,4.74 0,2.4 2.38,7.18 2.38,14.33 v 0 c 0,4.76 -2.38,7.14 -2.38,9.55 -2.37,2.38 -7.15,2.38 -11.95,2.38 h -7.11 z m -11.92,42.91 h 23.83 c 7.15,0 11.92,-2.39 14.29,-7.14 4.78,-2.4 4.78,-9.56 4.78,-16.7 v 0 c 0,-7.15 -2.39,-14.33 -4.78,-19.07 -2.37,-2.4 -4.76,-2.4 -9.51,-4.75 4.75,0 7.14,-2.41 9.51,-4.8 2.39,-2.38 2.39,-7.15 2.39,-14.29 0,-7.18 0,-11.93 2.39,-14.29 v -2.38 c 0,-2.4 0,-4.8 0,-7.18 0,-2.42 0,-2.42 0,-4.77 h -4.78 -4.76 c 0,2.35 0,4.77 -2.38,7.15 v 2.4 2.4 c 0,4.74 0,9.49 0,14.29 0,4.78 -2.37,9.52 -2.37,11.89 -2.4,2.4 -4.78,4.78 -9.58,4.78 h -7.11 v -42.91 h -7.17 -4.75 z m -42.92,-64.35 h 16.7 l -9.56,52.44 v 0 z m 0,64.35 h 14.29 l 16.71,-95.37 h -9.56 l -4.74,21.44 h -19.08 l -4.8,-21.44 h -4.74 -4.76 z m -52.43,-11.91 h -19.09 v 11.91 h 47.66 v -4.79 -7.12 h -19.08 v -83.46 h -4.77 -4.72 z m -61.99,-83.46 v 95.37 h 33.36 v -11.91 h -23.84 v -28.64 h 23.84 v -7.11 -4.8 h -23.84 v -33.36 h 26.2 v -4.78 -4.77 z m -45.33,52.46 h 9.54 c 4.76,0 9.56,2.36 9.56,4.74 2.38,2.4 4.75,7.18 4.75,14.33 v 0 c 0,4.76 -2.37,7.14 -4.75,9.55 0,2.38 -4.8,2.38 -9.56,2.38 h -9.54 z m -9.52,42.91 h 23.82 c 7.18,0 11.93,-2.39 14.29,-7.14 2.41,-2.4 4.79,-9.56 4.79,-16.7 v 0 c 0,-7.15 -2.38,-14.33 -4.79,-19.07 -2.36,-2.4 -7.11,-2.4 -9.49,-4.75 4.75,0 7.13,-2.41 9.49,-4.8 2.41,-2.38 2.41,-7.15 2.41,-14.29 0,-7.18 0,-11.93 0,-14.29 v -2.38 c 2.38,-2.4 2.38,-4.8 2.38,-7.18 0,-2.42 0,-2.42 0,-4.77 h -4.79 -4.74 c -2.37,2.35 -2.37,4.77 -2.37,7.15 v 2.4 2.4 c 0,4.74 0,9.49 0,14.29 0,4.78 -2.38,9.52 -4.77,11.89 0,2.4 -2.41,4.78 -7.17,4.78 h -9.54 v -42.91 h -4.77 -4.75 z m -47.7,-95.37 v 95.37 h 35.76 v -11.91 h -23.82 v -28.64 h 21.44 v -7.11 -4.8 h -21.44 v -33.36 h 23.82 v -4.78 -4.77 z m -14.29,23.84 c 0,-9.51 -2.4,-14.29 -4.79,-19.07 -4.75,-4.77 -9.51,-7.15 -16.68,-7.15 -7.14,0 -11.91,2.38 -14.29,7.15 -4.77,4.78 -7.15,9.56 -7.15,19.07 v 71.53 h 4.75 7.17 v -69.13 c 0,-4.8 0,-9.55 2.38,-11.91 2.38,-4.78 4.77,-4.78 7.14,-4.78 4.78,0 7.17,0 9.56,4.78 0,2.36 2.37,7.11 2.37,11.91 v 69.13 h 4.75 4.79 z m -78.68,61.99 c -2.4,0 -7.15,-2.37 -7.15,-4.75 -2.39,-4.79 -4.78,-9.55 -4.78,-16.7 v -33.36 c 0,-9.58 2.39,-14.33 2.39,-16.69 2.39,-4.78 4.79,-4.78 9.54,-4.78 4.74,0 7.16,0 9.54,4.78 2.38,2.36 2.38,7.11 2.38,16.69 v 33.36 c 0,9.53 0,14.29 -2.38,16.7 -2.38,2.38 -4.8,4.75 -9.54,4.75 z m 28.63,-85.83 h -11.94 l -19.09,-2.38 c -7.14,0 -11.93,2.38 -14.29,7.15 -2.38,4.78 -4.75,14.32 -4.75,26.25 v 35.77 c 0,9.5 2.37,16.67 4.75,21.44 4.76,4.75 9.54,7.14 16.69,7.14 7.16,0 14.31,-2.39 16.69,-7.14 4.76,-2.4 4.76,-9.56 4.76,-19.09 v -35.76 c 0,-9.54 -2.38,-16.69 -4.76,-23.83 l 11.94,2.4 z m -121.6,0 v 95.37 h 35.77 v -11.91 h -23.87 v -28.64 h 21.48 v -7.11 -4.8 h -21.48 v -33.36 h 23.87 v -4.78 -4.77 z m -45.29,9.55 h 9.53 c 4.76,0 7.15,2.4 9.51,4.78 2.4,2.36 2.4,7.11 2.4,14.29 v 38.17 c 0,7.12 0,11.88 -2.4,14.29 -2.36,2.38 -4.75,2.38 -9.51,2.38 h -9.53 z m -11.94,85.82 h 19.09 c 9.53,0 14.29,-2.39 19.07,-7.14 4.74,-4.77 7.15,-11.94 7.15,-21.44 v -38.17 c 0,-9.53 -2.41,-16.67 -4.76,-21.47 -4.79,-4.8 -9.57,-7.15 -16.68,-7.15 h -19.07 -4.8 z m -69.14,-64.35 h 16.69 l -7.15,52.44 v 0 z m 2.4,64.35 h 14.29 l 16.69,-95.37 h -11.91 l -2.38,21.44 h -21.47 l -2.41,-21.44 h -4.73 -4.76 z m -81.06,-95.37 h -9.56 v 95.37 h 16.71 l 14.29,-76.28 v 0 l 14.32,76.28 h 7.14 9.53 v -95.37 h -4.74 -4.79 v 83.46 0 l -16.69,-83.46 h -4.77 -4.77 l -16.67,83.46 z m -45.32,9.55 c 4.79,0 7.15,0 9.55,4.78 2.39,2.36 2.39,7.11 2.39,14.29 v 40.52 c 0,4.77 0,9.53 -2.39,11.94 -2.4,2.38 -4.76,4.75 -9.55,4.75 -4.75,0 -7.14,-2.37 -7.14,-4.75 -2.38,-2.41 -4.75,-9.55 -4.75,-14.29 v -35.77 c 0,-9.58 2.37,-14.33 2.37,-16.69 2.38,-2.38 4.77,-4.78 9.52,-4.78 z m 0,-11.93 c -7.14,0 -14.29,2.38 -16.67,7.15 -2.39,4.78 -4.8,14.32 -4.8,26.25 v 35.77 c 0,9.5 2.41,16.67 4.8,21.44 4.78,4.75 9.53,7.14 16.67,7.14 7.15,0 14.3,-2.39 16.69,-7.14 4.78,-4.77 4.78,-11.94 4.78,-23.85 v -38.14 c 0,-9.55 0,-16.69 -4.78,-21.47 -2.39,-4.77 -9.54,-7.15 -16.69,-7.15 z m -71.52,2.38 h -9.51 v 95.37 h 16.69 l 19.05,-83.42 v 83.42 h 4.77 4.77 v -95.37 h -7.15 -9.54 l -19.08,81.08 z m -45.27,9.55 c 4.75,0 7.15,0 9.51,4.78 2.39,2.36 2.39,7.11 2.39,14.29 v 40.52 c 0,4.77 0,9.53 -2.39,11.94 -2.36,2.38 -4.76,4.75 -9.51,4.75 -2.4,0 -7.18,-2.37 -7.18,-4.75 -2.39,-2.41 -2.39,-9.55 -2.39,-14.29 v -35.77 c 0,-9.58 0,-14.33 2.39,-16.69 0,-2.38 2.4,-4.78 7.18,-4.78 z m 0,-11.93 c -7.18,0 -14.33,2.38 -16.68,7.15 -2.4,4.78 -4.79,14.32 -4.79,26.25 v 35.77 c 0,9.5 2.39,16.67 4.79,21.44 4.75,4.75 9.5,7.14 16.68,7.14 9.51,0 14.3,-2.39 16.68,-7.14 4.77,-4.77 4.77,-11.94 4.77,-23.85 v -38.14 c 0,-9.55 0,-16.69 -4.77,-21.47 -2.38,-4.77 -9.53,-7.15 -16.68,-7.15 z m -59.63,85.84 h -19.08 v 11.91 h 47.7 v -4.79 -7.12 h -19.08 v -83.46 h -4.75 -4.79 z m -28.58,-59.62 c 0,-9.51 -2.4,-14.29 -4.79,-19.07 -4.75,-4.77 -9.54,-7.15 -16.69,-7.15 -7.14,0 -11.93,2.38 -16.68,7.15 -2.39,4.78 -4.79,9.56 -4.79,19.07 v 71.53 h 4.79 4.75 v -69.13 c 0,-4.8 2.4,-9.55 2.4,-11.91 2.39,-4.78 4.74,-4.78 9.53,-4.78 2.4,0 7.15,0 7.15,4.78 2.39,2.36 2.39,7.11 2.39,11.91 v 69.13 h 7.15 4.79 z m -88.21,7.18 h 16.67 l -7.17,52.44 v 0 z m 2.35,64.35 h 14.32 l 16.69,-95.37 h -11.93 l -2.36,21.44 h -21.47 l -2.39,-21.44 h -4.76 -4.78 z m -85.82,-85.82 h 9.54 c 4.79,0 9.55,2.4 9.55,4.78 2.38,2.36 2.38,7.11 2.38,14.29 v 38.17 c 0,7.12 0,11.88 -2.38,14.29 -2.4,2.38 -4.76,2.38 -9.55,2.38 h -9.54 z m -9.54,85.82 h 16.69 c 9.54,0 16.68,-2.39 19.08,-7.14 4.78,-4.77 7.14,-11.94 7.14,-21.44 v -38.17 c 0,-9.53 -2.36,-16.67 -4.75,-21.47 -2.39,-4.8 -7.15,-7.15 -14.29,-7.15 h -19.08 -4.79 z m -45.27,-64.35 h 16.69 l -9.58,52.44 v 0 z m 2.37,64.35 h 11.92 l 19.08,-95.37 h -11.93 l -2.39,21.44 h -21.44 l -4.78,-21.44 h -4.76 -4.79 z m -61.995,-85.82 h 9.535 c 4.758,0 9.547,2.4 9.547,4.78 2.387,2.36 2.387,7.11 2.387,14.29 v 38.17 c 0,7.12 0,11.88 -2.387,14.29 -2.402,2.38 -4.789,2.38 -9.547,2.38 h -9.535 z m -11.899,85.82 h 19.079 c 9.5,0 16.687,-2.39 19.046,-7.14 4.786,-4.77 7.139,-11.94 7.139,-21.44 v -38.17 c 0,-9.53 -2.353,-16.67 -4.752,-21.47 -2.387,-4.8 -7.144,-7.15 -14.32,-7.15 h -19.047 -7.145 z m -23.867,0 h 9.543 v -95.37 h -9.543 z m -23.824,-28.58 v 2.35 c 0,7.15 0,9.53 0,11.94 -2.398,2.38 -4.758,4.75 -7.152,4.75 -4.782,0 -7.18,-2.37 -9.535,-2.37 -2.399,-2.38 -2.399,-7.17 -2.399,-11.93 0,-2.39 0,-7.15 2.399,-9.53 2.355,0 4.753,-4.8 9.535,-7.18 7.152,-4.76 14.297,-9.52 16.683,-14.29 2.395,-2.4 2.395,-7.15 2.395,-14.29 0,-9.55 0,-16.69 -4.781,-21.47 -4.758,-4.77 -9.543,-7.15 -16.692,-7.15 -7.14,0 -14.293,2.38 -16.687,7.15 -2.387,4.78 -4.782,11.92 -4.782,21.47 v 2.38 2.4 h 9.571 v -2.4 c 0,-7.18 2.359,-11.93 2.359,-14.29 2.399,-4.78 4.754,-4.78 9.539,-4.78 4.789,0 7.149,0 9.547,2.4 2.387,2.38 2.387,7.14 2.387,11.89 0,4.78 0,7.18 -2.387,9.54 -2.398,2.38 -4.758,7.15 -11.934,9.53 -7.152,4.8 -11.906,9.55 -14.3,14.29 -2.387,2.4 -2.387,7.18 -2.387,14.33 0,7.14 0,14.3 4.781,19.05 2.395,2.4 9.508,4.79 16.688,4.79 7.152,0 11.898,0 14.297,-4.79 2.386,-4.75 4.781,-9.5 4.781,-19.05 v -2.39 -2.35 z m -73.895,-14.33 h 9.504 c 4.786,0 7.184,2.36 9.543,4.74 2.391,2.4 2.391,7.18 2.391,14.33 v 0 c 0,4.76 0,7.14 -2.391,9.55 -2.359,2.38 -4.757,2.38 -9.543,2.38 h -9.504 z m -9.574,42.91 h 23.864 c 4.757,0 9.546,-2.39 14.293,-7.14 2.398,-2.4 4.789,-9.56 4.789,-16.7 v 0 c 0,-7.15 -2.391,-14.33 -7.176,-19.07 -2.36,-2.4 -4.758,-2.4 -9.508,-4.75 4.75,0 9.508,-2.41 9.508,-4.8 2.387,-2.38 4.785,-7.15 4.785,-14.29 0,-7.18 0,-11.93 0,-14.29 v -2.38 c 0,-2.4 0,-4.8 0,-7.18 2.391,-2.42 2.391,-2.42 2.391,-4.77 h -4.789 -7.145 c 0,2.35 0,4.77 0,7.15 v 2.4 2.4 c -2.391,4.74 -2.391,9.49 -2.391,14.29 0,4.78 0,9.52 -2.359,11.89 -2.398,2.4 -4.785,4.78 -9.574,4.78 h -7.114 v -42.91 h -4.789 -4.785 z m -47.66,-95.37 v 95.37 h 33.371 v -11.91 h -23.828 v -28.64 h 23.828 v -7.11 -4.8 h -23.828 v -33.36 h 26.227 v -4.78 -4.77 z m -54.848,95.37 h 9.547 l 11.934,-81.04 11.898,81.04 h 4.782 7.14 l -16.679,-95.37 h -7.141 -7.18 z m -21.433,0 h 9.543 v -95.37 h -9.543 z m -50.09,-95.37 h -9.504 v 95.37 h 16.684 l 19.074,-83.42 v 83.42 h 4.758 4.754 v -95.37 h -7.145 -9.543 l -19.078,81.08 z m -23.832,23.84 c 0,-9.51 0,-14.29 -4.75,-19.07 -2.398,-4.77 -9.543,-7.15 -16.691,-7.15 -7.172,0 -11.93,2.38 -14.321,7.15 -4.758,4.78 -7.144,9.56 -7.144,19.07 v 71.53 h 4.785 7.113 v -69.13 c 0,-4.8 0,-9.55 2.395,-11.91 2.386,-4.78 4.785,-4.78 7.172,-4.78 4.753,0 7.148,0 9.511,4.78 2.395,2.36 2.395,7.11 2.395,11.91 v 69.13 h 4.785 4.75 z"
         style="fill:none;stroke:#231f20;stroke-width:4.399;stroke-linecap:butt;stroke-linejoin:miter;stroke-miterlimit:4;stroke-dasharray:none;stroke-opacity:1"
         id="path40" /><path
         d="m 1647.19,1965.1 v -50.06 h -152.6 l 152.6,-38.15 v -47.66 l -31,-30.98 31,19.07 v -11.93 l -35.76,-23.83 -855.903,-855.912 -11.898,9.543 858.271,858.279 42.9,71.51 -219.33,47.68 z m 0,73.92 v -26.22 l -31,33.4 31,-52.45 v -21.47 l -59.58,102.49 z m 69.13,-128.73 v -216.94 l -33.39,135.88 -35.74,-23.84 v 11.93 l 33.38,21.43 -4.75,19.09 v 0 l -28.63,-28.61 v 47.66 l 30.99,-7.11 z m 0,221.73 v -64.39 l -21.47,-92.95 21.47,-21.47 v -38.17 h -69.13 v 50.06 l 2.38,2.4 -2.38,4.78 v 21.47 l 14.28,-23.87 14.35,2.4 2.36,9.51 -30.99,31.01 v 26.22 l 40.52,-23.82 z m 54.81,-35.76 V 1941.3 l -23.82,-23.87 h 23.82 v -38.15 l -23.82,21.46 v -226.47 l 23.82,90.6 v -35.76 l -33.37,-123.98 -21.44,88.22 v 216.94 l 4.76,4.75 h -4.76 v 38.17 l 21.44,-21.47 v 226.46 l -21.44,-90.57 v 64.39 l 21.44,85.82 z m 54.86,-178.83 v -54.83 l -14.3,-2.39 14.3,-14.31 v -38.14 l -30.99,19.07 -23.87,-97.72 v 35.76 l 21.48,92.97 -21.48,21.44 v 38.15 z m 0,95.37 -26.24,-26.23 -4.75,16.69 30.99,21.47 v 9.51 l -33.38,-21.44 -21.48,83.46 V 1941.3 l 19.09,21.43 35.77,-9.52 z m 31,31.01 -31,-31.01 v -59.59 l 147.83,-35.78 h -147.83 v -54.83 l 2.39,2.38 38.15,-59.59 -40.54,40.51 v -38.14 l 69.13,-42.89 -59.59,100.11 212.18,47.68 -221.72,54.84 54.84,83.46 207.4,209.79 -11.9,11.94 -214.59,-216.98 -35.75,-21.47 v -9.51 l 31,19.08"
         style="fill:#231f20;fill-opacity:1;fill-rule:evenodd;stroke:none"
         id="path42" /><path
         d="m 1649.57,1967.5 -61.96,107.27 100.1,-59.57 50.05,202.64 54.85,-205.04 69.13,42.91 214.59,216.98 11.9,-11.94 -207.4,-209.79 -54.84,-83.46 221.72,-54.84 -212.18,-47.68 59.59,-100.11 -100.12,61.96 -57.24,-221.7 -54.83,224.1 -71.5,-47.67 -855.903,-855.912 -11.898,9.543 858.271,858.279 42.9,71.51 -219.33,47.68 z m 324.25,-50.07 h -226.51 l 42.91,45.3 z m -226.51,-243.16 v 226.47 l 45.3,-42.9 z m 119.22,131.12 -54.84,54.82 16.69,4.77 z m -250.34,-7.14 59.63,59.59 v 0 l 4.75,-19.09 z m -121.6,116.79 h 226.49 l -42.9,-45.26 z m 121.6,131.16 61.99,-64.41 -2.36,-9.51 -14.35,-2.4 z m 121.57,112 v -226.46 l -42.91,42.94 z m 119.23,-114.39 -57.24,-57.24 -4.75,16.69 z"
         style="fill:none;stroke:#231f20;stroke-width:4.399;stroke-linecap:butt;stroke-linejoin:miter;stroke-miterlimit:4;stroke-dasharray:none;stroke-opacity:1"
         id="path44" /><path
         d="m 1394.49,618.109 c -11.93,0 -23.86,0 -33.41,2.391 -7.14,0 -11.89,0 -16.68,0 -16.69,4.781 -28.62,14.281 -38.13,28.582 -2.39,4.777 -4.78,9.566 -7.17,14.328 -21.44,4.75 -38.12,23.828 -38.12,45.301 0,21.469 16.68,40.551 38.12,45.258 4.78,21.48 16.68,45.34 28.61,69.172 -16.68,35.769 -23.83,76.281 -23.83,116.839 0,47.668 9.54,88.2 28.59,128.73 -14.29,16.69 -23.84,33.36 -30.98,52.45 -7.14,23.83 -7.14,47.7 -4.76,73.88 v 2.4 c 2.37,2.39 2.37,4.78 2.37,7.18 11.93,23.8 31.01,38.12 54.84,42.87 2.4,19.08 19.08,35.77 40.55,38.15 v -90.6 c -19.07,2.4 -35.77,16.69 -40.55,35.78 -16.68,-4.77 -30.98,-14.31 -38.16,-33.38 -2.36,0 -2.36,-2.4 -2.36,-4.79 -2.39,-23.79 -2.39,-45.26 4.76,-66.74 4.78,-14.3 11.93,-28.59 23.86,-40.51 14.3,23.82 30.98,47.69 52.45,69.13 v -23.83 c -45.3,-52.45 -73.92,-116.83 -73.92,-190.72 0,-33.378 4.79,-66.769 16.69,-97.781 16.68,26.25 35.76,54.832 57.23,83.449 v -28.617 c -19.07,-23.82 -35.77,-50.051 -50.09,-73.89 14.32,-28.61 28.62,-52.45 50.09,-73.879 V 723 c -23.86,23.859 -42.94,50.07 -59.63,81.07 -7.15,-16.691 -14.29,-35.769 -19.08,-52.441 19.08,-2.367 35.77,-21.449 35.77,-42.918 0,-21.473 -14.29,-40.551 -35.77,-45.301 2.4,-2.379 2.4,-4.762 4.79,-4.762 7.14,-11.929 16.69,-19.078 26.22,-21.457 4.76,0 9.55,-2.41 14.29,0 l 2.41,-2.41 c 7.14,0 19.07,0 31,0 z m 171.65,483.961 v -21.44 c -35.78,-31 -71.55,-64.37 -102.52,-100.138 -26.26,-26.222 -50.08,-54.844 -69.13,-83.461 v 28.617 c 16.68,21.442 35.76,45.313 57.2,66.782 35.75,38.13 73.9,76.28 114.45,109.64 z m -171.65,183.57 c 0,0 2.36,0 4.75,0 23.84,0 45.3,-21.46 45.3,-45.3 16.69,-4.74 35.76,-11.92 52.46,-16.69 21.44,7.17 45.29,14.35 69.14,16.69 v -16.69 c -16.71,-2.34 -30.99,-4.74 -45.32,-9.52 14.33,-7.15 28.61,-14.3 45.32,-23.84 v -19.08 c -21.48,11.93 -42.92,23.83 -64.4,31.01 v 0 c -2.36,2.4 -2.36,2.4 -4.74,2.4 -40.54,-16.72 -73.92,-42.94 -102.51,-73.92 v 23.83 c 23.82,23.82 50.05,42.91 81.03,59.6 -11.9,2.38 -23.83,7.18 -33.36,9.52 -7.15,-16.67 -23.85,-28.61 -42.92,-28.61 -2.39,0 -4.75,0 -4.75,0 z m 171.65,-648.449 c -28.63,4.77 -57.24,11.891 -83.44,23.84 -14.32,-14.312 -33.39,-26.25 -52.45,-33.383 -11.94,-4.769 -23.86,-7.148 -35.76,-9.539 v 16.672 c 9.5,2.41 19.05,4.789 28.59,9.559 16.69,4.742 33.38,14.308 45.3,23.82 -28.61,14.332 -52.45,33.371 -73.89,54.84 v 0 26.262 c 2.36,-4.782 7.14,-9.571 11.9,-14.321 40.55,-42.921 97.76,-71.531 159.75,-81.082 z m 50.05,519.719 v -33.38 c -16.69,-14.31 -33.38,-28.61 -50.05,-42.9 v 21.44 c 14.29,11.94 30.97,26.23 45.29,38.12 -14.32,9.59 -31,21.49 -45.29,31.02 v 19.08 c 16.67,-9.54 33.36,-21.43 50.05,-33.38 z m 0,-522.129 c 0,0 -2.4,0 -4.76,0 -16.67,0 -31,0 -45.29,2.41 v 16.668 c 14.29,-2.39 28.62,-2.39 45.29,-2.39 2.36,0 4.76,0 4.76,0 z m -4.76,610.329 c 2.36,0 4.76,0 4.76,0 v -16.69 c 0,0 -2.4,0 -4.76,0 -16.67,0 -31,-2.37 -45.29,-4.77 v 16.69 c 14.29,2.4 28.62,4.77 45.29,4.77 z m 66.75,-59.58 v -19.07 c -14.29,-9.55 -26.23,-16.68 -38.14,-26.27 11.91,-11.89 23.85,-21.43 38.14,-33.35 v -21.44 c -16.71,16.67 -35.78,31.01 -52.46,42.9 -2.35,-2.39 -4.75,-2.39 -9.53,-4.77 v 33.38 c 4.78,-2.38 7.18,-4.74 9.53,-7.13 16.68,11.9 35.75,23.82 52.46,35.75 z m 0,-543.569 c -19.09,-4.77 -40.52,-7.18 -61.99,-7.18 v 16.688 c 21.47,0 42.9,2.39 61.99,7.179 z m -61.99,603.149 c 21.47,0 42.9,-4.77 61.99,-7.11 v -16.69 c -19.09,2.34 -40.52,7.11 -61.99,7.11 z m 214.59,-302.778 v -28.613 c -26.24,35.75 -57.24,73.929 -88.22,109.691 -21.48,19.07 -42.91,40.55 -64.38,61.99 v 21.44 c 26.21,-23.84 52.44,-47.67 76.28,-76.28 26.25,-26.23 52.43,-57.22 76.32,-88.228 z m 0,-343.301 c -2.4,0 -4.79,-2.402 -7.18,-2.402 -23.85,0 -45.29,21.48 -45.29,45.332 0,2.379 0,2.379 0,2.379 -11.92,4.742 -21.46,14.308 -31,21.461 -21.43,-9.539 -45.31,-19.082 -69.13,-23.84 v 16.687 c 59.58,14.301 112.04,47.661 152.6,92.981 v -23.84 c -21.47,-21.48 -42.96,-38.148 -66.79,-52.449 4.8,-4.789 11.94,-9.539 19.09,-14.309 7.14,16.688 21.46,26.207 40.52,26.207 2.39,0 4.78,0 7.18,0 z M 1678.18,1238 c 19.08,-4.8 38.14,-11.95 54.85,-19.09 38.1,19.09 69.12,30.97 97.75,33.37 v -16.68 c -21.47,-2.4 -47.7,-11.95 -78.68,-26.24 28.61,-14.32 52.44,-33.38 73.89,-54.83 2.39,0 2.39,-2.36 4.79,-2.36 v -23.87 c -4.79,4.79 -9.56,9.55 -16.71,14.3 -21.46,23.86 -50.08,42.93 -78.69,57.23 -2.35,0 -2.35,0 -4.76,0 v -2.39 c -16.67,-7.15 -35.77,-19.09 -52.44,-30.98 v 19.07 c 11.93,9.51 23.82,16.69 35.77,23.83 -11.95,4.77 -23.84,7.15 -35.77,11.95 V 1238 Z m 152.6,14.28 c 14.29,4.78 26.21,4.78 35.75,2.39 14.3,0 23.82,-4.79 33.38,-9.56 9.53,-4.77 16.67,-11.91 21.48,-21.46 0,-2.34 2.34,-4.74 2.34,-4.74 11.94,-9.55 21.48,-23.87 21.48,-40.56 0,-14.29 -7.15,-28.57 -21.48,-38.16 0,-9.49 -2.34,-21.43 -7.15,-33.35 -4.77,-16.69 -14.29,-33.38 -26.23,-45.28 16.71,-38.15 26.23,-76.31 26.23,-121.58 0,-35.761 -7.14,-71.531 -19.08,-104.89 16.71,-28.641 28.63,-57.25 38.17,-83.461 v 0 c 4.75,-16.688 4.75,-33.379 4.75,-45.32 0,-21.469 -4.75,-40.508 -14.29,-52.45 -9.55,-14.289 -21.48,-23.828 -38.16,-28.578 -4.76,0 -9.54,0 -16.68,0 -2.37,-2.402 -4.76,-2.402 -7.15,-2.402 -7.15,-14.289 -19.07,-23.848 -33.36,-23.848 v 88.207 c 21.44,-2.398 38.14,-21.437 38.14,-45.277 0,0 0,0 0,-2.391 v 0 l 2.37,2.391 c 4.75,-2.391 9.54,0 14.34,0 9.49,2.379 19.02,9.508 26.18,21.449 7.17,9.539 11.92,23.828 11.92,42.899 0,11.941 0,26.23 -4.75,40.55 -7.17,21.442 -16.69,42.879 -28.63,69.141 -14.31,-33.379 -35.75,-64.371 -59.57,-88.211 v 23.84 c 19.06,23.82 38.14,52.441 50.05,83.461 -14.3,23.82 -30.99,52.441 -50.05,78.629 v 28.613 c 21.44,-28.613 40.51,-59.602 57.19,-88.172 7.15,28.57 11.94,57.211 11.94,85.82 0,73.89 -26.23,135.88 -69.13,188.32 v 23.87 c 19.06,-21.47 38.14,-47.7 52.43,-73.92 7.14,9.5 14.29,21.48 16.7,33.36 2.38,7.15 4.74,14.3 7.15,23.84 -2.41,-2.36 -4.77,-2.36 -7.15,-2.36 -23.87,0 -45.31,21.44 -45.31,45.26 0,26.27 21.44,45.3 45.31,45.3 -2.41,2.4 -4.79,4.77 -7.15,7.17 -7.13,4.78 -16.72,7.18 -26.23,7.18 -11.93,2.34 -23.86,2.34 -35.75,-2.4 v 16.68"
         style="fill:#231f20;fill-opacity:1;fill-rule:nonzero;stroke:none"
         id="path46" /><path
         d="m 1337.26,842.199 c 28.61,50.082 69.13,100.133 114.43,150.231 47.69,52.44 104.89,104.89 159.74,147.76 -35.77,26.27 -73.92,47.71 -109.69,62.03 v 0 c -2.36,2.4 -2.36,2.4 -4.74,2.4 -102.51,-42.94 -176.43,-147.85 -176.43,-264.64 0,-33.378 4.79,-66.769 16.69,-97.781 z m 543.57,-7.109 c -33.38,59.558 -83.43,126.332 -138.27,188.32 -35.76,35.76 -76.32,73.91 -116.84,104.89 -54.81,-42.9 -112.04,-93 -162.1,-147.808 -47.69,-52.453 -90.6,-107.281 -119.22,-157.351 16.68,-33.403 35.77,-61.993 61.99,-88.2 52.44,-52.449 123.97,-83.472 205.04,-83.472 121.6,0 226.49,76.32 269.4,183.621 z m -145.45,364.74 c -2.35,0 -2.35,0 -4.76,0 v -2.39 c -28.62,-14.3 -59.58,-33.38 -90.58,-57.25 40.53,-33.35 78.65,-69.12 114.42,-109.63 52.43,-54.822 97.76,-116.841 133.51,-176.4 7.15,28.57 11.94,57.211 11.94,85.82 0,81.04 -30.99,150.17 -85.84,202.62 -21.46,23.86 -50.08,42.93 -78.69,57.23 z m -214.56,14.3 c 33.38,-16.69 69.14,-38.15 104.9,-64.35 31.03,23.82 61.99,42.87 88.23,59.58 -31.02,11.95 -66.76,19.06 -102.52,19.06 -33.41,0 -64.38,-4.77 -90.61,-14.29 z M 1315.78,751.629 c 19.08,-2.367 35.77,-21.449 35.77,-42.918 0,-21.473 -14.29,-40.551 -35.77,-45.301 2.4,-2.379 2.4,-4.762 4.79,-4.762 7.14,-11.929 16.69,-19.078 26.22,-21.457 4.76,0 9.55,-2.41 14.29,0 l 2.41,-2.41 c 14.31,-2.39 38.14,0 59.59,9.559 16.69,4.742 33.38,14.308 45.3,23.82 -28.61,14.332 -52.45,33.371 -73.89,54.84 -23.86,23.859 -42.94,50.07 -59.63,81.07 -7.15,-16.691 -14.29,-35.769 -19.08,-52.441 z m 507.82,-64.391 c 26.24,0 45.32,-19.078 45.32,-45.277 0,0 0,0 0,-2.391 v 0 l 2.37,2.391 c 4.75,-2.391 9.54,0 14.34,0 9.49,2.379 19.02,9.508 26.18,21.449 7.17,9.539 11.92,23.828 11.92,42.899 0,11.941 0,26.23 -4.75,40.55 -7.17,21.442 -16.69,42.879 -28.63,69.141 -26.21,-59.621 -71.51,-109.691 -126.36,-140.66 4.8,-4.789 11.94,-9.539 19.09,-14.309 7.14,16.688 21.46,26.207 40.52,26.207 z m 83.46,448.212 c -2.41,-2.36 -4.77,-2.36 -7.15,-2.36 -23.87,0 -45.31,21.44 -45.31,45.26 0,26.27 21.44,45.3 45.31,45.3 -2.41,2.4 -4.79,4.77 -7.15,7.17 -7.13,4.78 -16.72,7.18 -26.23,7.18 -26.23,4.74 -64.38,-4.8 -114.43,-28.64 28.61,-14.32 52.44,-33.38 73.89,-54.83 23.85,-21.44 42.93,-47.69 57.22,-76.28 7.14,9.5 14.29,21.48 16.7,33.36 2.38,7.15 4.74,14.3 7.15,23.84 z m -464.9,88.2 c -7.15,-16.67 -23.85,-28.61 -42.92,-28.61 -21.44,0 -40.52,14.32 -45.3,35.78 -16.68,-4.77 -30.98,-14.31 -38.16,-33.38 -2.36,0 -2.36,-2.4 -2.36,-4.79 -2.39,-23.79 -2.39,-45.26 4.76,-66.74 4.78,-14.3 11.93,-28.59 23.86,-40.51 28.59,54.79 76.27,100.13 133.48,128.73 -11.9,2.38 -23.83,7.18 -33.36,9.52 z m 169.27,21.46 c 42.91,0 83.42,-9.51 121.6,-26.2 59.58,28.58 102.5,40.52 133.5,35.76 14.3,0 23.82,-4.79 33.38,-9.56 9.53,-4.77 16.67,-11.91 21.48,-21.46 0,-2.34 2.34,-4.74 2.34,-4.74 11.94,-9.55 21.48,-23.87 21.48,-40.56 0,-14.29 -7.15,-28.57 -21.48,-38.16 0,-9.49 -2.34,-21.43 -7.15,-33.35 -4.77,-16.69 -14.29,-33.38 -26.23,-45.28 16.71,-38.15 26.23,-76.31 26.23,-121.58 0,-35.761 -7.14,-71.531 -19.08,-104.89 16.71,-28.641 28.63,-57.25 38.17,-83.461 v 0 c 4.75,-16.688 4.75,-33.379 4.75,-45.32 0,-21.469 -4.75,-40.508 -14.29,-52.45 -9.55,-14.289 -21.48,-23.828 -38.16,-28.578 -4.76,0 -9.54,0 -16.68,0 -2.37,-2.402 -4.76,-2.402 -7.15,-2.402 -7.15,-14.289 -21.47,-26.25 -40.54,-26.25 -23.85,0 -45.29,21.48 -45.29,45.332 0,2.379 0,2.379 0,2.379 -11.92,4.742 -21.46,14.308 -31,21.461 -40.51,-19.082 -88.22,-31.02 -135.88,-31.02 -45.29,0 -88.21,9.559 -128.73,26.25 -14.32,-14.312 -33.39,-26.25 -52.45,-33.383 -26.26,-9.539 -50.08,-11.949 -69.17,-7.148 -7.14,0 -11.89,0 -16.68,0 -16.69,4.781 -28.62,14.281 -38.13,28.582 -2.39,4.777 -4.78,9.566 -7.17,14.328 -21.44,4.75 -38.12,23.828 -38.12,45.301 0,21.469 16.68,40.551 38.12,45.258 4.78,21.48 16.68,45.34 28.61,69.172 -16.68,35.769 -23.83,76.281 -23.83,116.839 0,47.668 9.54,88.2 28.59,128.73 -14.29,16.69 -23.84,33.36 -30.98,52.45 -7.14,23.83 -7.14,47.7 -4.76,73.88 v 2.4 c 2.37,2.39 2.37,4.78 2.37,7.18 11.93,23.8 31.01,38.12 54.84,42.87 4.78,21.46 21.48,38.15 45.3,38.15 23.84,0 45.3,-21.46 45.3,-45.3 16.69,-4.74 35.76,-11.92 52.46,-16.69 35.76,14.35 73.91,21.46 114.43,21.46 z"
         style="fill:none;stroke:#231f20;stroke-width:4.399;stroke-linecap:butt;stroke-linejoin:miter;stroke-miterlimit:4;stroke-dasharray:none;stroke-opacity:1"
         id="path48" /><path
         d="m 1032.09,1934.12 v -11.91 h -2.38 c -4.76,-4.78 -14.3,-19.07 -16.69,-54.83 l 16.69,-2.4 c 2.38,2.4 2.38,2.4 2.38,2.4 v -16.69 h -16.68 c -2.39,-9.57 -2.39,-14.32 -2.39,-21.46 0,-2.4 4.75,-4.8 4.75,-9.55 h 14.32 v -19.04 h -4.75 c 0,-2.39 -2.39,-7.17 4.75,-9.57 v 0 -109.66 l -16.68,-9.53 -4.79,-61.99 c -4.75,-35.77 0,-52.44 16.72,-52.44 h 4.75 v -50.07 l -9.54,4.76 -4.78,7.18 11.94,19.04 h -16.69 l -47.704,69.16 21.481,19.06 -9.547,31 28.62,16.69 v 7.14 c 4.75,38.13 7.15,76.28 9.54,114.44 -7.15,11.91 -14.33,23.83 -14.33,40.52 0,28.61 0,61.99 9.54,83.46 7.15,7.15 11.93,11.91 21.47,14.29 z m 0,224.08 v -11.89 c -21.47,23.83 -57.195,45.27 -83.453,38.16 -50.059,-31.01 7.179,-97.79 47.691,-40.56 14.292,-2.37 23.842,-9.53 35.762,-16.67 v -7.15 c -9.54,7.15 -19.07,11.93 -33.363,16.68 -2.399,-2.39 -4.786,-2.39 -4.786,-4.75 2.387,-7.18 21.469,-21.47 38.149,-23.87 v -114.4 l -16.68,-23.87 c 2.36,-4.78 9.54,-7.15 16.68,-7.15 v -23.81 c 0,7.11 -2.38,14.29 -7.14,14.29 l -14.33,4.78 c -2.36,2.36 -4.75,7.11 -7.14,11.89 v 4.8 l 19.07,26.2 v 26.25 c -7.14,19.07 -4.78,38.12 0,50.04 -21.47,-7.17 -38.155,2.4 -52.445,16.69 -28.613,-14.29 -45.3,0 -59.593,16.69 -26.227,16.69 -40.547,21.47 -52.446,35.76 -14.332,4.78 -28.625,9.55 -42.914,9.55 -4.785,2.34 -7.179,4.76 -4.785,11.93 38.153,9.5 73.918,4.75 109.684,-4.79 7.14,28.58 23.832,35.76 42.91,35.76 23.836,-2.38 50.059,-21.47 69.129,-40.56 z m 21.45,-598.38 v -95.35 l -9.51,-2.4 v 40.56 l -11.94,4.75 v 50.07 z m 0,231.25 v -92.97 l -2.36,-2.37 -19.09,-14.32 v 109.66 z m 0,45.3 v -35.73 h -21.45 v 19.04 h 16.69 c -7.15,11.93 -9.54,21.44 -14.33,31.01 h -2.36 v 16.69 c 4.76,0 7.15,-2.4 9.54,-7.17 2.4,-9.52 7.15,-16.69 11.91,-23.84 z m 0,85.84 v -11.92 c -9.51,2.37 -14.3,7.14 -21.45,11.92 v 11.91 0 c 0,2.4 0,2.4 0,4.8 v 23.81 c 2.36,0 4.76,0 7.15,0 0,-11.92 4.79,-21.43 7.15,-33.41 z m 0,78.67 c -2.36,0 -4.76,-2.38 -4.76,-4.77 0,-4.76 2.4,-7.15 4.76,-7.15 z m 0,131.14 v -104.89 c -7.15,0 -14.3,0 -19.09,0 v -28.63 l -2.36,-4.75 v 114.4 c 2.36,0 4.76,0 7.15,0 4.79,0 2.39,0 4.79,2.4 -2.4,2.4 -7.18,4.78 -11.94,9.54 v 7.15 c 7.15,-4.79 14.3,-11.91 21.45,-16.69 0,9.54 -9.51,23.83 -21.45,35.76 v 11.89 c 9.54,-9.49 16.69,-19.07 21.45,-26.18 z m 0,-143.06 v 11.92 c 2.39,0 4.78,-2.38 4.78,-4.77 0,-4.76 -2.39,-7.15 -4.78,-7.15 z m 64.38,-421.99 v -112.04 l -11.94,-9.54 -23.83,23.83 -28.61,-4.75 v 95.35 l 52.44,7.15 c 4.79,0 7.18,0 11.94,0 z m 0,128.76 v -9.56 h -4.76 l -19.07,-61.96 c 4.75,2.37 14.29,0 23.83,-2.39 v -9.54 c -7.15,2.36 -16.68,4.76 -26.23,4.76 -4.79,0 -4.79,4.78 -2.39,14.29 l 19.08,62.02 z m 0,114.41 v -81.03 h -26.23 l -11.9,-26.26 -21.47,7.19 -4.78,-11.94 v 92.97 h 26.25 c -2.39,2.4 -9.57,4.78 -11.92,9.57 h -14.33 v 35.73 c 7.17,-11.94 16.68,-23.83 31.01,-30.98 9.54,-7.14 16.69,-9.54 26.22,-4.75 2.39,2.35 4.75,4.75 7.15,9.5 z m 0,109.69 v -19.09 l -19.08,-30.96 c -2.36,-9.57 -14.29,-21.47 -9.54,2.35 0,21.44 -11.9,33.41 -28.59,38.16 -2.39,0 -4.78,0 -7.17,0 v 11.92 c 9.54,-4.78 16.68,-4.78 31.01,-2.38 v -11.94 c 7.14,-2.35 9.54,-9.53 14.29,-16.68 7.14,9.53 14.32,16.68 19.08,28.62 z m 0,131.13 h -2.4 l 2.4,7.15 v 112.03 c -7.15,-9.52 -11.94,-19.05 -16.68,-28.6 -16.69,-7.16 -28.63,-14.3 -42.92,-21.45 0,2.36 -2.39,7.15 -4.78,11.93 v -104.89 c 4.78,0 9.54,2.36 11.93,2.36 11.93,-2.36 26.22,-9.54 35.77,-14.29 -9.55,-26.24 0,-52.47 16.68,-66.79 v 14.32 c -9.54,14.3 -14.3,28.62 -11.94,42.91 4.79,-2.38 7.18,-4.76 11.94,-4.76 v 4.76 c -2.4,0 -7.15,0 -9.54,2.41 l 2.39,9.5 c 2.39,0 4.75,0 7.15,-2.35 v 14.29 c -2.4,0 -4.76,0 -4.76,0 l 2.36,9.53 c 0,0 0,0 2.4,0 z m 16.68,-481.59 v -100.15 h -4.75 l -11.93,-14.29 v 112.04 c 4.75,2.4 11.93,2.4 16.68,2.4 z m 0,45.27 v -9.51 c -4.75,2.39 -11.93,4.76 -16.68,7.15 v 9.54 c 4.75,-2.4 9.54,-4.78 16.68,-7.18 z m 0,85.86 v -9.55 l -16.68,-4.78 v 9.56 z m 0,169.28 V 1834 c -2.35,-2.39 -2.35,-4.77 -4.75,-9.57 h 4.75 v -26.18 h -7.14 c -2.4,0 -4.79,-4.78 -9.54,-7.18 h 16.68 v -61.96 l -2.35,-2.4 -14.33,2.4 v 81.03 c 4.75,14.29 9.54,35.76 16.68,59.64 z m 0,83.43 v -21.47 c -2.35,-2.42 -2.35,-7.15 -9.54,-16.7 l -7.14,-14.3 v 19.09 c 2.39,7.15 4.75,14.29 7.14,21.47 -2.39,2.37 -4.75,4.73 -7.14,7.11 v 14.32 c 2.39,-4.74 7.14,-9.52 11.93,-14.32 2.4,2.4 2.4,2.4 4.75,4.8 z m 0,50.05 v -4.76 c -7.14,0 -11.93,0 -16.68,2.38 v 4.76 c 7.14,-2.38 11.93,-2.38 16.68,-2.38 z m 0,19.08 v -7.14 c -2.35,-2.4 -9.54,-2.4 -16.68,0 v 14.29 c 7.14,-2.36 14.33,-4.76 16.68,-7.15 z m 0,23.86 c -4.75,0 -11.93,2.36 -16.68,4.76 v -11.94 c 7.14,0 11.93,0 16.68,-2.38 z m -11.93,28.57 4.79,9.57 c 2.39,0 4.79,0 7.14,-2.42 v 107.31 c -7.14,-4.76 -11.93,-11.94 -16.68,-19.09 v -112.03 7.14 c 7.14,-4.77 11.93,-4.77 16.68,-7.14 V 2070 c -4.75,2.39 -7.14,2.39 -11.93,4.77 z m 11.93,-59.57 v 7.14 c 2.39,-2.39 2.39,-4.79 0,-7.14 z m 14.33,-445.83 v -100.15 h -14.33 v 100.15 c 4.76,0 9.54,0 14.33,0 z m 0,40.52 v -9.54 c -4.79,2.39 -9.57,4.78 -14.33,4.78 v 9.51 c 4.76,0 9.54,-2.36 14.33,-4.75 z m 0,92.96 v -7.12 l -14.33,-4.78 v 9.55 z m 0,88.22 v -38.13 h -2.4 l -11.93,-23.83 v 0 61.96 z m 0,33.36 v -26.18 h -14.33 v 26.18 z m 0,78.71 v -19.07 c 0,0 0,0 0,-2.39 0,-2.4 -2.4,-11.9 -4.79,-16.7 h 4.79 v -16.67 h -9.57 c 0,-2.41 -2.37,-7.19 -4.76,-14.31 v 35.78 c 0,4.75 2.39,9.5 2.39,16.68 2.37,7.11 4.76,14.28 11.94,16.68 z m 0,54.85 v -11.96 h -2.4 c -9.54,-7.11 -11.93,-9.51 -11.93,-14.29 v 21.47 c 2.39,2.38 9.54,4.78 14.33,4.78 z m -14.33,100.12 c 11.93,-2.4 9.54,4.77 0,11.89 z m 14.33,-4.8 c -2.4,-4.75 -7.18,-7.11 -14.33,-7.11 v -9.56 c 14.33,-7.15 11.93,-26.21 0,-33.38 v -4.76 c 0,0 2.39,0 4.76,0 4.78,-9.54 7.17,-16.71 9.57,-23.82 v 19.07 c 0,2.36 -2.4,4.75 -2.4,4.75 l 2.4,4.76 z m -14.33,28.61 c 7.15,-2.35 11.93,-4.75 14.33,-9.53 v 16.68 c -4.79,2.41 -7.18,4.79 -11.94,9.59 l 2.37,9.49 c 4.78,-4.74 7.17,-7.14 9.57,-7.14 v 14.32 c 0,2.37 -2.4,2.37 -4.79,2.37 l 4.79,7.14 v 78.71 c -4.79,-2.39 -9.57,-7.17 -14.33,-14.32 z m 14.33,19.09 v 14.32 c 19.04,-11.92 21.44,-28.65 0,-14.32 z m 16.69,-534.04 v -97.75 h -16.69 v 100.15 c 7.14,0 11.9,0 16.69,-2.4 z m 0,40.55 v -9.57 c -4.79,0 -11.94,0 -16.69,2.4 v 9.54 c 2.36,0 4.75,0 4.75,0 4.76,-2.37 9.54,-2.37 11.94,-2.37 z m 0,100.12 v -9.54 l -16.69,-2.37 v 7.12 z m 0,126.36 v -81.06 h -16.69 v 38.13 h 7.14 c 2.37,2.4 4.76,4.78 4.76,7.18 h -11.9 v 26.18 h 11.9 c 2.39,2.4 4.79,7.18 4.79,9.57 z m 0,30.98 v -16.67 h -16.69 v 16.67 z m 0,52.45 v -19.07 c -2.4,-2.4 -2.4,-2.4 -2.4,-4.79 -2.39,0 -9.54,-2.36 -9.54,-2.36 -2.39,0 -2.39,-2.39 -4.75,-7.14 v 19.07 c 2.36,2.4 4.75,2.4 4.75,4.75 4.76,2.4 9.54,4.77 11.94,9.54 z m 0,35.78 v -11.91 c -4.79,2.37 -9.55,4.73 -16.69,4.73 v 11.96 c 2.36,0 2.36,0 2.36,0 0,4.74 0,11.89 -2.36,16.69 v 19.07 c 4.75,-9.58 9.51,-21.47 11.9,-40.54 z m 0,262.24 v -66.74 c -2.4,-2.4 -4.79,-7.17 -7.18,-11.94 2.39,0 4.78,-2.39 7.18,-2.39 v -14.29 c -2.4,2.36 -7.18,7.15 -14.33,9.53 l -2.36,-4.78 v 78.71 c 4.75,2.35 7.14,7.12 11.9,9.5 2.39,0 4.79,0 4.79,2.4 z m -16.69,-143.06 c 4.75,-7.14 4.75,-14.28 0,-19.08 v -50.05 l 4.75,7.17 c 4.76,-2.38 9.54,-7.17 11.94,-9.55 v 85.8 c -4.79,-2.34 -9.55,-2.34 -16.69,2.39 z m 26.19,-507.8 v -95.37 h -9.5 v 97.75 c 4.75,0 7.14,-2.38 9.5,-2.38 z m 0,42.93 v -31.01 c -4.75,4.75 -9.5,11.95 -7.15,21.44 0,0 0,0 -2.35,0 v 9.57 c 4.75,0 7.14,0 9.5,0 z m 0,102.52 v -9.54 l -9.5,-2.4 v 9.54 z m 0,154.94 v -42.9 l -2.36,-16.69 c -4.79,-4.75 -2.39,-9.54 0,-9.54 h 2.36 v -42.91 h -9.5 V 1834 c 2.35,4.75 4.75,9.52 4.75,14.31 h -4.75 v 16.67 z m 0,62 v -19.09 c -4.75,-2.35 -7.15,-7.15 -9.5,-9.53 v 19.07 c 4.75,2.4 7.14,4.78 9.5,9.55 z m 0,21.43 v -11.89 c -2.36,2.4 -7.15,4.78 -9.5,4.78 v 11.91 z m 0,147.85 v -38.15 l -7.15,-14.3 c 2.4,0 4.79,-2.39 7.15,-2.39 v -54.85 c -2.36,4.78 -4.75,9.54 -9.5,14.31 v 85.8 c 4.75,0 7.14,4.8 9.5,9.58 z m 0,33.36 v -23.85 c -2.36,4.78 -4.75,9.56 -9.5,14.32 v 14.29 c 4.75,-2.36 7.14,-4.76 9.5,-4.76 z m 0,88.22 v -61.98 c -2.36,-2.4 -7.15,-4.77 -9.5,-7.15 v 66.74 c 2.35,0 7.14,2.39 9.5,2.39 z m 19.07,-667.54 c -4.74,7.15 -11.9,11.89 -19.07,14.29 v -92.97 l 2.39,16.69 c 4.78,0 9.54,0 16.68,0 z m 0,59.59 v -9.54 c -7.14,2.39 -9.5,2.39 -14.28,0 -2.4,-9.54 4.78,-19.09 14.28,-23.84 v -11.92 c -7.14,2.38 -14.28,7.18 -19.07,11.92 v 31.01 c 7.17,2.37 14.33,2.37 19.07,2.37 z m 0,104.89 v -9.54 l -19.07,-4.74 v 9.54 z m 0,78.69 v -19.09 l -16.68,-19.07 -2.39,-2.37 v 42.91 z m 0,95.35 v -9.54 h -11.9 l -7.17,-57.2 v 42.9 0 c 2.39,14.3 7.17,21.48 11.93,23.84 z m 0,143.05 v -100.13 h -2.38 c -4.76,-7.15 -11.9,-16.7 -16.69,-23.85 v 19.09 c 0,2.34 2.39,4.76 4.79,7.14 -2.4,2.4 -4.79,2.4 -4.79,2.4 v 11.89 l 7.17,-2.38 c 0,16.7 -2.38,31 -7.17,40.54 v 54.85 c 7.17,-2.4 11.93,-7.18 19.07,-9.55 z m 0,81.08 v -9.54 c -2.38,0 -2.38,0 -4.74,0 l -2.4,-14.34 c 2.4,0 4.76,0 7.14,0 v -30.96 c -4.74,2.37 -11.9,2.37 -19.07,2.37 v -2.37 38.15 c 0,2.4 0,7.15 0,9.51 v 23.85 c 7.17,-4.78 9.57,-11.92 9.57,-16.67 z m 0,112.04 v -71.53 c -4.74,4.74 -11.9,4.74 -19.07,2.4 v 61.98 c 7.17,4.75 11.93,4.75 19.07,7.15 z m 0,-736.68 c 2.4,0 4.79,0 9.55,0 40.55,28.61 14.32,78.66 7.14,95.35 0,11.91 -2.35,19.08 -4.75,23.86 0,4.76 -4.76,4.76 -11.94,2.37 v -9.54 c 2.4,0 4.79,-2.4 4.79,-7.15 2.39,-4.74 2.39,-7.14 2.39,-11.94 2.37,-4.75 7.16,-7.14 7.16,-11.89 -4.79,2.4 -9.55,4.75 -14.34,7.14 v -11.92 c 11.94,-7.14 23.87,-14.29 23.87,-28.6 -4.78,-14.32 -9.53,-7.18 -14.32,2.37 -4.76,4.75 -7.15,9.54 -9.55,11.94 z m 78.72,71.51 h -26.26 c 2.39,19.06 0,38.13 -2.36,54.82 -4.79,9.57 -40.55,42.94 -21.47,95.4 0,4.74 -2.4,9.5 -7.15,9.5 l -21.48,-4.76 v -9.54 l 14.34,4.8 c -9.55,-47.7 7.14,-73.93 26.22,-102.52 0,-11.95 4.75,-14.32 2.39,-45.33 -9.58,-11.89 -7.18,-26.2 -4.79,-28.58 l 40.56,-2.4 v 9.55 h -21.48 c -4.78,0 -7.14,2.35 -7.14,7.14 v 0 c 0,2.4 2.36,4.78 7.14,4.78 h 21.48 z m 0,202.67 V 1593.2 c 0,4.75 -2.4,11.93 -2.4,16.69 v 140.66 c 0,9.54 -7.18,16.69 -19.08,23.83 l -52.45,7.18 -4.79,-7.18 v 19.09 l 57.24,-9.54 c 9.55,-4.76 16.69,-11.93 21.48,-21.44 z m 0,116.79 v -9.5 l -78.72,9.5 v 9.54 z m 0,81.07 c -2.4,-11.94 -7.19,-23.83 -14.34,-35.76 l -26.22,7.15 c 7.15,52.43 -7.14,83.46 -38.16,100.13 v -100.13 l 78.72,-21.45 z m 0,102.53 v -78.71 c -4.79,35.78 -33.41,64.39 -78.72,73.94 v 30.96 c 31.02,-4.73 57.24,-11.9 78.72,-26.19 z m 0,40.53 v -7.15 c -21.48,9.51 -50.09,11.89 -78.72,7.15 v 9.54 h 7.18 c 4.76,21.43 0,35.76 -7.18,40.51 v 71.53 c 7.18,0 11.94,2.35 19.09,0 35.76,-4.77 61.98,-42.9 42.91,-119.22 7.14,0 11.93,-2.36 16.72,-2.36 z m 0,-233.63 v 9.5 l 59.56,-9.5 11.93,-54.84 11.94,33.37 16.68,-4.79 4.78,4.79 -7.17,33.37 -97.72,28.61 v 50.06 c 2.35,9.53 2.35,16.68 0,23.82 v 78.71 c 54.8,-28.64 73.88,-83.46 28.58,-150.22 l 19.08,-7.12 c 71.53,59.56 40.51,162.09 -47.66,190.72 v 7.15 c 102.51,-28.64 116.79,-155 57.2,-200.27 l 47.69,-16.68 4.76,-52.46 h -7.14 -16.7 l -14.32,-38.15 -9.54,2.4 -14.29,64.35 z m 0,-338.57 v 9.55 h 50.05 c 4.75,0 7.15,2.35 7.15,7.14 v 0 c 0,2.4 -2.4,4.78 -7.15,4.78 h -50.05 v 7.14 h 21.44 c -2.4,4.77 -4.76,7.15 -7.15,11.95 -7.18,7.11 -11.94,14.29 -14.29,21.43 v 169.29 c 2.35,0 2.35,-2.4 2.35,-2.4 v -143.05 c 0,-26.23 11.94,-47.67 31.01,-50.07 l 21.44,-4.78 c 9.55,-19.08 9.55,-28.58 2.4,-30.98 h -57.2 v 0"
         style="fill:#231f20;fill-opacity:1;fill-rule:evenodd;stroke:none"
         id="path50" /><path
         d="m 1015.41,1671.88 35.77,23.85 7.14,14.31 21.47,-7.19 11.9,26.26 40.56,-2.4 2.35,2.4 11.93,23.83 h 9.54 l 21.44,2.37 21.47,26.25 52.45,-7.18 c 11.9,-7.14 19.08,-14.29 19.08,-23.83 v -140.66 c 2.4,-16.69 4.75,-26.23 16.69,-38.12 2.39,-4.8 4.75,-7.18 7.15,-11.95 h -47.7 c 2.39,19.06 0,38.13 -2.36,54.82 -4.79,9.57 -40.55,42.94 -21.47,95.4 0,4.74 -2.4,9.5 -7.15,9.5 l -107.29,-26.19 -19.08,-62.02 c -2.4,-9.51 -2.4,-14.29 2.39,-14.29 33.37,-2.4 50.06,-19.09 76.28,-19.09 -4.75,-33.36 50.09,-30.98 50.09,-61.96 -4.78,-14.32 -9.53,-7.18 -14.32,2.37 -16.69,23.83 -30.98,38.15 -97.76,28.61 l -78.64,-9.52 c -16.72,0 -21.47,16.67 -16.72,52.44 z m 236.02,-119.2 h 71.53 c 4.75,0 7.15,-2.38 7.15,-4.78 v 0 c 0,-4.79 -2.4,-7.14 -7.15,-7.14 h -71.53 c -4.78,0 -7.14,2.35 -7.14,7.14 v 0 c 0,2.4 2.36,4.78 7.14,4.78 z m -145.45,452.96 c 9.54,-7.14 21.48,-7.14 33.38,-7.14 9.57,-16.71 11.93,-26.22 11.93,-40.51 -7.15,0 -16.69,-2.4 -21.44,-9.58 -19.08,16.69 -26.23,38.16 -23.87,57.23 z m -52.44,-4.76 c 2.39,0 4.78,-2.38 4.78,-4.77 0,-4.76 -2.39,-7.15 -4.78,-7.15 -2.36,0 -4.76,2.39 -4.76,7.15 0,2.39 2.4,4.77 4.76,4.77 z m 126.37,-400.53 c -2.4,-14.29 9.54,-23.84 28.62,-30.98 0,4.75 -4.79,7.14 -7.16,11.89 0,4.8 0,7.2 -2.39,11.94 0,4.75 -2.39,7.15 -4.79,7.15 -7.14,2.39 -9.5,2.39 -14.28,0 z m -126.37,510.2 c -2.36,23.83 -61.958,88.21 -104.903,73.92 -50.059,-31.01 7.179,-97.79 47.691,-40.56 21.442,-2.37 40.522,-21.46 57.212,-33.36 z m -54.813,26.22 c -2.399,-2.39 -4.786,-2.39 -4.786,-4.75 2.387,-7.18 26.229,-26.25 45.299,-23.87 4.79,0 2.39,0 4.79,2.4 -11.94,7.15 -23.86,21.47 -45.303,26.22 z M 1125.06,1941.3 c -21.44,11.91 -35.76,45.27 -23.82,73.9 -9.55,4.75 -23.84,11.93 -35.77,14.29 -9.54,-2.36 -21.44,-2.36 -31.02,-2.36 v -28.63 l -19.04,-28.62 c 2.36,-7.15 16.68,-7.15 23.83,-7.15 0,-11.92 4.79,-21.43 7.15,-33.41 l 7.15,-7.11 c 9.54,-4.78 16.68,-4.78 31.01,-2.38 v -11.94 c 7.14,-2.35 9.54,-9.53 14.29,-16.68 11.93,16.68 19.08,26.22 26.22,50.09 z m -95.35,-19.09 c 11.92,-4.78 14.32,-11.92 31,-11.92 16.69,-4.75 28.59,-16.72 28.59,-38.16 -4.75,-23.82 7.18,-11.92 9.54,-2.35 l 26.22,45.26 c 14.3,21.48 4.79,16.7 21.47,30.99 11.91,0 21.44,-4.73 33.38,-11.91 -4.79,-11.91 -16.69,-21.46 -26.23,-26.23 -11.93,-4.75 -11.93,-14.32 -16.69,-21.43 -9.53,-38.15 -16.68,-76.32 -26.22,-85.82 -9.53,-4.79 -16.68,-2.39 -26.22,4.75 -23.84,14.29 -35.77,33.36 -42.92,54.82 -2.39,4.77 -4.78,7.17 -11.92,4.77 l -16.69,2.4 c 2.39,35.76 11.93,50.05 16.69,54.83 z m -14.3,-71.52 h 19.04 c 4.79,-9.57 7.18,-19.08 14.33,-31.01 h -31.01 c 0,4.75 -4.75,7.15 -4.75,9.55 0,7.14 0,11.89 2.39,21.46 z m 123.95,-2.38 h 31.01 c -2.4,-7.19 -2.4,-14.31 -9.54,-23.88 h -30.98 c 4.75,11.94 7.14,19.09 9.51,23.88 z m 52.45,83.43 178.82,-50.06 7.17,-33.37 -4.78,-4.79 -16.68,4.79 -11.94,-33.37 -11.93,54.84 -145.42,19.04 c -4.76,-2.36 -9.54,-9.54 -11.93,-23.84 h -30.98 c 2.39,4.8 4.79,14.3 4.79,16.7 0,4.78 2.36,9.53 4.75,9.53 0,0 7.15,2.36 9.54,2.36 0,4.79 19.07,23.86 28.59,38.17 z m -64.35,-133.49 h 33.37 c 0,-2.4 -2.39,-4.78 -4.76,-7.18 h -38.15 c 4.75,2.4 7.14,7.18 9.54,7.18 z m -95.37,-7.18 c -7.14,2.4 -4.75,7.18 -4.75,9.57 h 40.53 c 2.35,-4.79 9.53,-7.17 11.92,-9.57 z m 114.44,207.43 7.15,11.93 c 19.08,-11.93 28.61,-33.4 28.61,-64.4 l -21.46,7.18 c -2.39,21.47 -7.15,33.36 -14.3,45.29 z m 112.04,-73.91 c 38.16,61.98 2.41,126.37 -83.45,135.89 l -7.15,-16.67 c 45.31,-14.32 73.92,-45.31 64.38,-112.07 z m 62,-19.05 c 90.6,76.25 14.29,221.7 -131.12,197.87 l -2.4,-14.34 c 109.68,-11.9 181.18,-81.02 114.44,-176.41 z m -219.33,236 c 14.28,33.37 38.12,57.22 59.59,71.51 19.08,9.54 35.76,14.29 52.45,11.94 35.76,-4.77 61.98,-42.9 42.91,-119.22 119.23,-16.7 138.3,-154.96 73.92,-202.63 l 47.69,-16.68 4.76,-52.46 h -7.14 -16.7 l -14.32,-38.15 -9.54,2.4 -14.29,64.35 -138.28,16.68 -9.53,-73.89 c -4.79,-4.75 -2.39,-9.54 0,-9.54 l 78.67,-11.92 c 11.9,-4.76 19.08,-14.31 23.83,-23.84 v -143.05 c 0,-26.23 11.94,-47.67 31.01,-50.07 l 21.44,-4.78 c 9.55,-19.08 9.55,-28.58 2.4,-30.98 l -97.76,2.4 c -2.39,2.38 -4.79,16.69 4.79,28.58 2.36,31.01 -2.39,33.38 -2.39,45.33 -19.08,28.59 -35.77,54.82 -26.22,102.52 l -95.37,-23.87 -19.07,-61.96 c 11.89,4.75 38.16,-9.57 59.59,-14.32 31.01,-4.76 52.45,7.15 52.45,-2.37 2.4,-4.78 4.75,-11.95 4.75,-23.86 7.18,-16.69 33.41,-66.74 -7.14,-95.35 -14.29,0 -21.45,0 -26.23,0 l -2.39,-19.09 h -45.27 l -23.87,-23.83 -23.83,23.83 -38.12,-7.15 v 40.56 l -21.48,9.51 -4.78,7.18 11.94,19.04 h -16.69 l -47.704,69.16 21.481,19.06 -9.547,31 28.62,16.69 v 7.14 c 4.75,38.13 7.15,76.28 9.54,114.44 -7.15,11.91 -14.33,23.83 -14.33,40.52 0,28.61 0,61.99 9.54,83.46 7.15,7.15 14.33,11.91 21.47,14.29 0,9.55 -2.38,16.69 -7.14,19.09 l -14.33,4.78 c -2.36,2.36 -4.75,7.11 -7.14,11.89 v 4.8 l 19.07,26.2 v 26.25 c -7.14,19.07 -4.78,38.12 0,50.04 -21.47,-7.17 -38.155,2.4 -52.445,16.69 -28.613,-14.29 -45.3,0 -59.593,16.69 -26.227,16.69 -40.547,21.47 -52.446,35.76 -14.332,4.78 -28.625,9.55 -42.914,9.55 -4.785,2.34 -7.179,4.76 -4.785,11.93 38.153,9.5 73.918,4.75 109.684,-4.79 7.14,28.58 23.832,35.76 42.91,35.76 40.519,-4.78 95.359,-61.99 95.359,-78.67 14.29,7.15 26.23,14.29 42.92,21.45 z m 57.2,-4.77 c 16.68,31.02 52.44,28.61 42.93,-23.82 h -16.68 c 0,9.5 -7.18,16.67 -26.25,23.82 z m -14.3,-19.07 7.15,11.92 c 42.9,-16.67 23.83,-69.14 -14.3,-30.96 l 2.37,9.49 c 33.4,-28.58 31.01,-2.38 4.78,9.55 z m -30.98,-88.21 2.36,9.53 c 42.92,4.79 35.77,-52.45 -7.14,-30.97 l 2.39,9.5 c 33.37,-11.91 33.37,9.58 2.39,11.94 z m 9.51,45.28 4.79,9.57 c 35.76,-4.77 33.37,-52.47 -11.94,-33.38 l 2.4,14.29 c 33.37,-16.69 28.61,2.38 4.75,9.52 z"
         style="fill:none;stroke:#231f20;stroke-width:4.399;stroke-linecap:butt;stroke-linejoin:miter;stroke-miterlimit:4;stroke-dasharray:none;stroke-opacity:1"
         id="path52" /><path
         d="m 884.285,1829.23 c 59.598,0 107.297,-47.67 107.297,-107.3 0,-57.21 -47.699,-104.89 -107.297,-104.89 -57.23,0 -104.898,47.68 -104.898,104.89 0,59.63 47.668,107.3 104.898,107.3"
         style="fill:#231f20;fill-opacity:1;fill-rule:evenodd;stroke:none"
         id="path54" /><path
         d="m 884.285,1829.23 c 59.598,0 107.297,-47.67 107.297,-107.3 0,-57.21 -47.699,-104.89 -107.297,-104.89 -57.23,0 -104.898,47.68 -104.898,104.89 0,59.63 47.668,107.3 104.898,107.3 z"
         style="fill:none;stroke:#231f20;stroke-width:4.399;stroke-linecap:butt;stroke-linejoin:miter;stroke-miterlimit:4;stroke-dasharray:none;stroke-opacity:1"
         id="path56" /></g></g></svg>
